G04 #@! TF.FileFunction,Legend,Top*
%FSLAX46Y46*%
G04 Gerber Fmt 4.6, Leading zero omitted, Abs format (unit mm)*
G04 Created by KiCad (PCBNEW 4.0.3-stable) date 04/19/17 22:09:26*
%MOMM*%
%LPD*%
G01*
G04 APERTURE LIST*
%ADD10C,0.100000*%
%ADD11C,0.250000*%
%ADD12C,0.200000*%
%ADD13C,0.300000*%
%ADD14C,0.120000*%
G04 APERTURE END LIST*
D10*
D11*
X141272667Y-98121476D02*
X142106001Y-98121476D01*
X141272667Y-99371476D01*
X142106001Y-99371476D01*
X143058382Y-99311952D02*
X142939334Y-99371476D01*
X142701239Y-99371476D01*
X142582191Y-99311952D01*
X142522667Y-99192905D01*
X142522667Y-98716714D01*
X142582191Y-98597667D01*
X142701239Y-98538143D01*
X142939334Y-98538143D01*
X143058382Y-98597667D01*
X143117905Y-98716714D01*
X143117905Y-98835762D01*
X142522667Y-98954810D01*
X143653620Y-99371476D02*
X143653620Y-98538143D01*
X143653620Y-98776238D02*
X143713144Y-98657190D01*
X143772668Y-98597667D01*
X143891715Y-98538143D01*
X144010763Y-98538143D01*
X144606001Y-99371476D02*
X144486954Y-99311952D01*
X144427430Y-99252429D01*
X144367906Y-99133381D01*
X144367906Y-98776238D01*
X144427430Y-98657190D01*
X144486954Y-98597667D01*
X144606001Y-98538143D01*
X144784573Y-98538143D01*
X144903621Y-98597667D01*
X144963144Y-98657190D01*
X145022668Y-98776238D01*
X145022668Y-99133381D01*
X144963144Y-99252429D01*
X144903621Y-99311952D01*
X144784573Y-99371476D01*
X144606001Y-99371476D01*
X147046477Y-99371476D02*
X147046477Y-98716714D01*
X146986954Y-98597667D01*
X146867906Y-98538143D01*
X146629811Y-98538143D01*
X146510763Y-98597667D01*
X147046477Y-99311952D02*
X146927430Y-99371476D01*
X146629811Y-99371476D01*
X146510763Y-99311952D01*
X146451239Y-99192905D01*
X146451239Y-99073857D01*
X146510763Y-98954810D01*
X146629811Y-98895286D01*
X146927430Y-98895286D01*
X147046477Y-98835762D01*
X147641715Y-98538143D02*
X147641715Y-99371476D01*
X147641715Y-98657190D02*
X147701239Y-98597667D01*
X147820286Y-98538143D01*
X147998858Y-98538143D01*
X148117906Y-98597667D01*
X148177429Y-98716714D01*
X148177429Y-99371476D01*
X149308381Y-99371476D02*
X149308381Y-98121476D01*
X149308381Y-99311952D02*
X149189334Y-99371476D01*
X148951238Y-99371476D01*
X148832191Y-99311952D01*
X148772667Y-99252429D01*
X148713143Y-99133381D01*
X148713143Y-98776238D01*
X148772667Y-98657190D01*
X148832191Y-98597667D01*
X148951238Y-98538143D01*
X149189334Y-98538143D01*
X149308381Y-98597667D01*
X150856000Y-99371476D02*
X150856000Y-98121476D01*
X151272667Y-99014333D01*
X151689333Y-98121476D01*
X151689333Y-99371476D01*
X152463142Y-99371476D02*
X152344095Y-99311952D01*
X152284571Y-99252429D01*
X152225047Y-99133381D01*
X152225047Y-98776238D01*
X152284571Y-98657190D01*
X152344095Y-98597667D01*
X152463142Y-98538143D01*
X152641714Y-98538143D01*
X152760762Y-98597667D01*
X152820285Y-98657190D01*
X152879809Y-98776238D01*
X152879809Y-99133381D01*
X152820285Y-99252429D01*
X152760762Y-99311952D01*
X152641714Y-99371476D01*
X152463142Y-99371476D01*
X153951237Y-99371476D02*
X153951237Y-98121476D01*
X153951237Y-99311952D02*
X153832190Y-99371476D01*
X153594094Y-99371476D01*
X153475047Y-99311952D01*
X153415523Y-99252429D01*
X153355999Y-99133381D01*
X153355999Y-98776238D01*
X153415523Y-98657190D01*
X153475047Y-98597667D01*
X153594094Y-98538143D01*
X153832190Y-98538143D01*
X153951237Y-98597667D01*
X155022666Y-99311952D02*
X154903618Y-99371476D01*
X154665523Y-99371476D01*
X154546475Y-99311952D01*
X154486951Y-99192905D01*
X154486951Y-98716714D01*
X154546475Y-98597667D01*
X154665523Y-98538143D01*
X154903618Y-98538143D01*
X155022666Y-98597667D01*
X155082189Y-98716714D01*
X155082189Y-98835762D01*
X154486951Y-98954810D01*
X155796475Y-99371476D02*
X155677428Y-99311952D01*
X155617904Y-99192905D01*
X155617904Y-98121476D01*
X157105999Y-98121476D02*
X157879809Y-98121476D01*
X157463142Y-98597667D01*
X157641714Y-98597667D01*
X157760761Y-98657190D01*
X157820285Y-98716714D01*
X157879809Y-98835762D01*
X157879809Y-99133381D01*
X157820285Y-99252429D01*
X157760761Y-99311952D01*
X157641714Y-99371476D01*
X157284571Y-99371476D01*
X157165523Y-99311952D01*
X157105999Y-99252429D01*
X142155286Y-95006976D02*
X141738619Y-94411738D01*
X141441000Y-95006976D02*
X141441000Y-93756976D01*
X141917191Y-93756976D01*
X142036238Y-93816500D01*
X142095762Y-93876024D01*
X142155286Y-93995071D01*
X142155286Y-94173643D01*
X142095762Y-94292690D01*
X142036238Y-94352214D01*
X141917191Y-94411738D01*
X141441000Y-94411738D01*
X143226714Y-95006976D02*
X143226714Y-94352214D01*
X143167191Y-94233167D01*
X143048143Y-94173643D01*
X142810048Y-94173643D01*
X142691000Y-94233167D01*
X143226714Y-94947452D02*
X143107667Y-95006976D01*
X142810048Y-95006976D01*
X142691000Y-94947452D01*
X142631476Y-94828405D01*
X142631476Y-94709357D01*
X142691000Y-94590310D01*
X142810048Y-94530786D01*
X143107667Y-94530786D01*
X143226714Y-94471262D01*
X143762428Y-94947452D02*
X143881476Y-95006976D01*
X144119571Y-95006976D01*
X144238619Y-94947452D01*
X144298143Y-94828405D01*
X144298143Y-94768881D01*
X144238619Y-94649833D01*
X144119571Y-94590310D01*
X143941000Y-94590310D01*
X143821952Y-94530786D01*
X143762428Y-94411738D01*
X143762428Y-94352214D01*
X143821952Y-94233167D01*
X143941000Y-94173643D01*
X144119571Y-94173643D01*
X144238619Y-94233167D01*
X144833857Y-95006976D02*
X144833857Y-93756976D01*
X144833857Y-94233167D02*
X144952905Y-94173643D01*
X145191000Y-94173643D01*
X145310048Y-94233167D01*
X145369571Y-94292690D01*
X145429095Y-94411738D01*
X145429095Y-94768881D01*
X145369571Y-94887929D01*
X145310048Y-94947452D01*
X145191000Y-95006976D01*
X144952905Y-95006976D01*
X144833857Y-94947452D01*
X146441000Y-94947452D02*
X146321952Y-95006976D01*
X146083857Y-95006976D01*
X145964809Y-94947452D01*
X145905285Y-94828405D01*
X145905285Y-94352214D01*
X145964809Y-94233167D01*
X146083857Y-94173643D01*
X146321952Y-94173643D01*
X146441000Y-94233167D01*
X146500523Y-94352214D01*
X146500523Y-94471262D01*
X145905285Y-94590310D01*
X147036238Y-95006976D02*
X147036238Y-94173643D01*
X147036238Y-94411738D02*
X147095762Y-94292690D01*
X147155286Y-94233167D01*
X147274333Y-94173643D01*
X147393381Y-94173643D01*
X147810048Y-95006976D02*
X147810048Y-94173643D01*
X147810048Y-94411738D02*
X147869572Y-94292690D01*
X147929096Y-94233167D01*
X148048143Y-94173643D01*
X148167191Y-94173643D01*
X148464810Y-94173643D02*
X148762429Y-95006976D01*
X149060049Y-94173643D02*
X148762429Y-95006976D01*
X148643382Y-95304595D01*
X148583858Y-95364119D01*
X148464810Y-95423643D01*
X150488620Y-95006976D02*
X150488620Y-93756976D01*
X150964811Y-93756976D01*
X151083858Y-93816500D01*
X151143382Y-93876024D01*
X151202906Y-93995071D01*
X151202906Y-94173643D01*
X151143382Y-94292690D01*
X151083858Y-94352214D01*
X150964811Y-94411738D01*
X150488620Y-94411738D01*
X151738620Y-95006976D02*
X151738620Y-94173643D01*
X151738620Y-93756976D02*
X151679096Y-93816500D01*
X151738620Y-93876024D01*
X151798144Y-93816500D01*
X151738620Y-93756976D01*
X151738620Y-93876024D01*
X143345762Y-96774833D02*
X143941000Y-96774833D01*
X143226715Y-97131976D02*
X143643381Y-95881976D01*
X144060048Y-97131976D01*
X144476715Y-96655786D02*
X145429096Y-96655786D01*
X144952906Y-97131976D02*
X144952906Y-96179595D01*
X146083858Y-97072452D02*
X146083858Y-97131976D01*
X146024334Y-97251024D01*
X145964810Y-97310548D01*
X147988620Y-96477214D02*
X148167191Y-96536738D01*
X148226715Y-96596262D01*
X148286239Y-96715310D01*
X148286239Y-96893881D01*
X148226715Y-97012929D01*
X148167191Y-97072452D01*
X148048144Y-97131976D01*
X147571953Y-97131976D01*
X147571953Y-95881976D01*
X147988620Y-95881976D01*
X148107667Y-95941500D01*
X148167191Y-96001024D01*
X148226715Y-96120071D01*
X148226715Y-96239119D01*
X148167191Y-96358167D01*
X148107667Y-96417690D01*
X147988620Y-96477214D01*
X147571953Y-96477214D01*
X148821953Y-96655786D02*
X149774334Y-96655786D01*
X149298144Y-97131976D02*
X149298144Y-96179595D01*
D12*
X140970000Y-154940000D02*
X141605000Y-154940000D01*
X140335000Y-154940000D02*
X140970000Y-154940000D01*
X140335000Y-104140000D02*
X140335000Y-154940000D01*
X159385000Y-114300000D02*
X140335000Y-114300000D01*
X140335000Y-152400000D02*
X159385000Y-152400000D01*
X140335000Y-149860000D02*
X159385000Y-149860000D01*
X140335000Y-147320000D02*
X159385000Y-147320000D01*
X140335000Y-144780000D02*
X159385000Y-144780000D01*
X140335000Y-142240000D02*
X159385000Y-142240000D01*
X140335000Y-139700000D02*
X159385000Y-139700000D01*
X159385000Y-137160000D02*
X159385000Y-137795000D01*
X140335000Y-137160000D02*
X159385000Y-137160000D01*
X159385000Y-134620000D02*
X159385000Y-135255000D01*
X140335000Y-134620000D02*
X159385000Y-134620000D01*
X140335000Y-132080000D02*
X159385000Y-132080000D01*
X140335000Y-129540000D02*
X159385000Y-129540000D01*
X140335000Y-127000000D02*
X159385000Y-127000000D01*
X140335000Y-124460000D02*
X159385000Y-124460000D01*
X140335000Y-121920000D02*
X159385000Y-121920000D01*
X140335000Y-119380000D02*
X159385000Y-119380000D01*
X140335000Y-116840000D02*
X159385000Y-116840000D01*
X140335000Y-111760000D02*
X159385000Y-111760000D01*
X140335000Y-109220000D02*
X159385000Y-109220000D01*
X159385000Y-106680000D02*
X140970000Y-106680000D01*
X140335000Y-106680000D02*
X159385000Y-106680000D01*
X159385000Y-104140000D02*
X140335000Y-104140000D01*
X159385000Y-154940000D02*
X159385000Y-104140000D01*
X149860000Y-154940000D02*
X159385000Y-154940000D01*
X140970000Y-154940000D02*
X149860000Y-154940000D01*
X149860000Y-154940000D02*
X140970000Y-154940000D01*
X149860000Y-104140000D02*
X149860000Y-154940000D01*
D13*
X155765715Y-113708571D02*
X154908572Y-113708571D01*
X155337144Y-113708571D02*
X155337144Y-112208571D01*
X155194287Y-112422857D01*
X155051429Y-112565714D01*
X154908572Y-112637143D01*
X157051429Y-112708571D02*
X157051429Y-113708571D01*
X156694286Y-112137143D02*
X156337143Y-113208571D01*
X157265715Y-113208571D01*
X155765715Y-116248571D02*
X154908572Y-116248571D01*
X155337144Y-116248571D02*
X155337144Y-114748571D01*
X155194287Y-114962857D01*
X155051429Y-115105714D01*
X154908572Y-115177143D01*
X157122858Y-114748571D02*
X156408572Y-114748571D01*
X156337143Y-115462857D01*
X156408572Y-115391429D01*
X156551429Y-115320000D01*
X156908572Y-115320000D01*
X157051429Y-115391429D01*
X157122858Y-115462857D01*
X157194286Y-115605714D01*
X157194286Y-115962857D01*
X157122858Y-116105714D01*
X157051429Y-116177143D01*
X156908572Y-116248571D01*
X156551429Y-116248571D01*
X156408572Y-116177143D01*
X156337143Y-116105714D01*
X155765715Y-118788571D02*
X154908572Y-118788571D01*
X155337144Y-118788571D02*
X155337144Y-117288571D01*
X155194287Y-117502857D01*
X155051429Y-117645714D01*
X154908572Y-117717143D01*
X156622858Y-117931429D02*
X156480000Y-117860000D01*
X156408572Y-117788571D01*
X156337143Y-117645714D01*
X156337143Y-117574286D01*
X156408572Y-117431429D01*
X156480000Y-117360000D01*
X156622858Y-117288571D01*
X156908572Y-117288571D01*
X157051429Y-117360000D01*
X157122858Y-117431429D01*
X157194286Y-117574286D01*
X157194286Y-117645714D01*
X157122858Y-117788571D01*
X157051429Y-117860000D01*
X156908572Y-117931429D01*
X156622858Y-117931429D01*
X156480000Y-118002857D01*
X156408572Y-118074286D01*
X156337143Y-118217143D01*
X156337143Y-118502857D01*
X156408572Y-118645714D01*
X156480000Y-118717143D01*
X156622858Y-118788571D01*
X156908572Y-118788571D01*
X157051429Y-118717143D01*
X157122858Y-118645714D01*
X157194286Y-118502857D01*
X157194286Y-118217143D01*
X157122858Y-118074286D01*
X157051429Y-118002857D01*
X156908572Y-117931429D01*
X154908572Y-122511429D02*
X154980001Y-122440000D01*
X155122858Y-122368571D01*
X155480001Y-122368571D01*
X155622858Y-122440000D01*
X155694287Y-122511429D01*
X155765715Y-122654286D01*
X155765715Y-122797143D01*
X155694287Y-123011429D01*
X154837144Y-123868571D01*
X155765715Y-123868571D01*
X156265715Y-122368571D02*
X157194286Y-122368571D01*
X156694286Y-122940000D01*
X156908572Y-122940000D01*
X157051429Y-123011429D01*
X157122858Y-123082857D01*
X157194286Y-123225714D01*
X157194286Y-123582857D01*
X157122858Y-123725714D01*
X157051429Y-123797143D01*
X156908572Y-123868571D01*
X156480000Y-123868571D01*
X156337143Y-123797143D01*
X156265715Y-123725714D01*
X154908572Y-125051429D02*
X154980001Y-124980000D01*
X155122858Y-124908571D01*
X155480001Y-124908571D01*
X155622858Y-124980000D01*
X155694287Y-125051429D01*
X155765715Y-125194286D01*
X155765715Y-125337143D01*
X155694287Y-125551429D01*
X154837144Y-126408571D01*
X155765715Y-126408571D01*
X157051429Y-125408571D02*
X157051429Y-126408571D01*
X156694286Y-124837143D02*
X156337143Y-125908571D01*
X157265715Y-125908571D01*
X154908572Y-130131429D02*
X154980001Y-130060000D01*
X155122858Y-129988571D01*
X155480001Y-129988571D01*
X155622858Y-130060000D01*
X155694287Y-130131429D01*
X155765715Y-130274286D01*
X155765715Y-130417143D01*
X155694287Y-130631429D01*
X154837144Y-131488571D01*
X155765715Y-131488571D01*
X157122858Y-129988571D02*
X156408572Y-129988571D01*
X156337143Y-130702857D01*
X156408572Y-130631429D01*
X156551429Y-130560000D01*
X156908572Y-130560000D01*
X157051429Y-130631429D01*
X157122858Y-130702857D01*
X157194286Y-130845714D01*
X157194286Y-131202857D01*
X157122858Y-131345714D01*
X157051429Y-131417143D01*
X156908572Y-131488571D01*
X156551429Y-131488571D01*
X156408572Y-131417143D01*
X156337143Y-131345714D01*
X156622858Y-133171429D02*
X156480000Y-133100000D01*
X156408572Y-133028571D01*
X156337143Y-132885714D01*
X156337143Y-132814286D01*
X156408572Y-132671429D01*
X156480000Y-132600000D01*
X156622858Y-132528571D01*
X156908572Y-132528571D01*
X157051429Y-132600000D01*
X157122858Y-132671429D01*
X157194286Y-132814286D01*
X157194286Y-132885714D01*
X157122858Y-133028571D01*
X157051429Y-133100000D01*
X156908572Y-133171429D01*
X156622858Y-133171429D01*
X156480000Y-133242857D01*
X156408572Y-133314286D01*
X156337143Y-133457143D01*
X156337143Y-133742857D01*
X156408572Y-133885714D01*
X156480000Y-133957143D01*
X156622858Y-134028571D01*
X156908572Y-134028571D01*
X157051429Y-133957143D01*
X157122858Y-133885714D01*
X157194286Y-133742857D01*
X157194286Y-133457143D01*
X157122858Y-133314286D01*
X157051429Y-133242857D01*
X156908572Y-133171429D01*
X156265715Y-135068571D02*
X157265715Y-135068571D01*
X156622858Y-136568571D01*
D11*
X154289619Y-139108571D02*
X154289619Y-137608571D01*
X154765809Y-139108571D02*
X154765809Y-137608571D01*
X155003904Y-137608571D01*
X155146762Y-137680000D01*
X155242000Y-137822857D01*
X155289619Y-137965714D01*
X155337238Y-138251429D01*
X155337238Y-138465714D01*
X155289619Y-138751429D01*
X155242000Y-138894286D01*
X155146762Y-139037143D01*
X155003904Y-139108571D01*
X154765809Y-139108571D01*
X155527714Y-139251429D02*
X156289619Y-139251429D01*
X156480095Y-139037143D02*
X156622952Y-139108571D01*
X156861048Y-139108571D01*
X156956286Y-139037143D01*
X157003905Y-138965714D01*
X157051524Y-138822857D01*
X157051524Y-138680000D01*
X157003905Y-138537143D01*
X156956286Y-138465714D01*
X156861048Y-138394286D01*
X156670571Y-138322857D01*
X156575333Y-138251429D01*
X156527714Y-138180000D01*
X156480095Y-138037143D01*
X156480095Y-137894286D01*
X156527714Y-137751429D01*
X156575333Y-137680000D01*
X156670571Y-137608571D01*
X156908667Y-137608571D01*
X157051524Y-137680000D01*
X158051524Y-138965714D02*
X158003905Y-139037143D01*
X157861048Y-139108571D01*
X157765810Y-139108571D01*
X157622952Y-139037143D01*
X157527714Y-138894286D01*
X157480095Y-138751429D01*
X157432476Y-138465714D01*
X157432476Y-138251429D01*
X157480095Y-137965714D01*
X157527714Y-137822857D01*
X157622952Y-137680000D01*
X157765810Y-137608571D01*
X157861048Y-137608571D01*
X158003905Y-137680000D01*
X158051524Y-137751429D01*
D13*
X155765715Y-144188571D02*
X154908572Y-144188571D01*
X155337144Y-144188571D02*
X155337144Y-142688571D01*
X155194287Y-142902857D01*
X155051429Y-143045714D01*
X154908572Y-143117143D01*
X156337143Y-142831429D02*
X156408572Y-142760000D01*
X156551429Y-142688571D01*
X156908572Y-142688571D01*
X157051429Y-142760000D01*
X157122858Y-142831429D01*
X157194286Y-142974286D01*
X157194286Y-143117143D01*
X157122858Y-143331429D01*
X156265715Y-144188571D01*
X157194286Y-144188571D01*
X154908572Y-152991429D02*
X154980001Y-152920000D01*
X155122858Y-152848571D01*
X155480001Y-152848571D01*
X155622858Y-152920000D01*
X155694287Y-152991429D01*
X155765715Y-153134286D01*
X155765715Y-153277143D01*
X155694287Y-153491429D01*
X154837144Y-154348571D01*
X155765715Y-154348571D01*
X157194286Y-154348571D02*
X156337143Y-154348571D01*
X156765715Y-154348571D02*
X156765715Y-152848571D01*
X156622858Y-153062857D01*
X156480000Y-153205714D01*
X156337143Y-153277143D01*
X154908572Y-150451429D02*
X154980001Y-150380000D01*
X155122858Y-150308571D01*
X155480001Y-150308571D01*
X155622858Y-150380000D01*
X155694287Y-150451429D01*
X155765715Y-150594286D01*
X155765715Y-150737143D01*
X155694287Y-150951429D01*
X154837144Y-151808571D01*
X155765715Y-151808571D01*
X156694286Y-150308571D02*
X156837143Y-150308571D01*
X156980000Y-150380000D01*
X157051429Y-150451429D01*
X157122858Y-150594286D01*
X157194286Y-150880000D01*
X157194286Y-151237143D01*
X157122858Y-151522857D01*
X157051429Y-151665714D01*
X156980000Y-151737143D01*
X156837143Y-151808571D01*
X156694286Y-151808571D01*
X156551429Y-151737143D01*
X156480000Y-151665714D01*
X156408572Y-151522857D01*
X156337143Y-151237143D01*
X156337143Y-150880000D01*
X156408572Y-150594286D01*
X156480000Y-150451429D01*
X156551429Y-150380000D01*
X156694286Y-150308571D01*
X155765715Y-149268571D02*
X154908572Y-149268571D01*
X155337144Y-149268571D02*
X155337144Y-147768571D01*
X155194287Y-147982857D01*
X155051429Y-148125714D01*
X154908572Y-148197143D01*
X157051429Y-147768571D02*
X156765715Y-147768571D01*
X156622858Y-147840000D01*
X156551429Y-147911429D01*
X156408572Y-148125714D01*
X156337143Y-148411429D01*
X156337143Y-148982857D01*
X156408572Y-149125714D01*
X156480000Y-149197143D01*
X156622858Y-149268571D01*
X156908572Y-149268571D01*
X157051429Y-149197143D01*
X157122858Y-149125714D01*
X157194286Y-148982857D01*
X157194286Y-148625714D01*
X157122858Y-148482857D01*
X157051429Y-148411429D01*
X156908572Y-148340000D01*
X156622858Y-148340000D01*
X156480000Y-148411429D01*
X156408572Y-148482857D01*
X156337143Y-148625714D01*
X142208572Y-150451429D02*
X142280001Y-150380000D01*
X142422858Y-150308571D01*
X142780001Y-150308571D01*
X142922858Y-150380000D01*
X142994287Y-150451429D01*
X143065715Y-150594286D01*
X143065715Y-150737143D01*
X142994287Y-150951429D01*
X142137144Y-151808571D01*
X143065715Y-151808571D01*
X144351429Y-150308571D02*
X144065715Y-150308571D01*
X143922858Y-150380000D01*
X143851429Y-150451429D01*
X143708572Y-150665714D01*
X143637143Y-150951429D01*
X143637143Y-151522857D01*
X143708572Y-151665714D01*
X143780000Y-151737143D01*
X143922858Y-151808571D01*
X144208572Y-151808571D01*
X144351429Y-151737143D01*
X144422858Y-151665714D01*
X144494286Y-151522857D01*
X144494286Y-151165714D01*
X144422858Y-151022857D01*
X144351429Y-150951429D01*
X144208572Y-150880000D01*
X143922858Y-150880000D01*
X143780000Y-150951429D01*
X143708572Y-151022857D01*
X143637143Y-151165714D01*
X143065715Y-149268571D02*
X142208572Y-149268571D01*
X142637144Y-149268571D02*
X142637144Y-147768571D01*
X142494287Y-147982857D01*
X142351429Y-148125714D01*
X142208572Y-148197143D01*
X143780000Y-149268571D02*
X144065715Y-149268571D01*
X144208572Y-149197143D01*
X144280000Y-149125714D01*
X144422858Y-148911429D01*
X144494286Y-148625714D01*
X144494286Y-148054286D01*
X144422858Y-147911429D01*
X144351429Y-147840000D01*
X144208572Y-147768571D01*
X143922858Y-147768571D01*
X143780000Y-147840000D01*
X143708572Y-147911429D01*
X143637143Y-148054286D01*
X143637143Y-148411429D01*
X143708572Y-148554286D01*
X143780000Y-148625714D01*
X143922858Y-148697143D01*
X144208572Y-148697143D01*
X144351429Y-148625714D01*
X144422858Y-148554286D01*
X144494286Y-148411429D01*
X143065715Y-146728571D02*
X142208572Y-146728571D01*
X142637144Y-146728571D02*
X142637144Y-145228571D01*
X142494287Y-145442857D01*
X142351429Y-145585714D01*
X142208572Y-145657143D01*
X143565715Y-145228571D02*
X144494286Y-145228571D01*
X143994286Y-145800000D01*
X144208572Y-145800000D01*
X144351429Y-145871429D01*
X144422858Y-145942857D01*
X144494286Y-146085714D01*
X144494286Y-146442857D01*
X144422858Y-146585714D01*
X144351429Y-146657143D01*
X144208572Y-146728571D01*
X143780000Y-146728571D01*
X143637143Y-146657143D01*
X143565715Y-146585714D01*
X144351429Y-142688571D02*
X144065715Y-142688571D01*
X143922858Y-142760000D01*
X143851429Y-142831429D01*
X143708572Y-143045714D01*
X143637143Y-143331429D01*
X143637143Y-143902857D01*
X143708572Y-144045714D01*
X143780000Y-144117143D01*
X143922858Y-144188571D01*
X144208572Y-144188571D01*
X144351429Y-144117143D01*
X144422858Y-144045714D01*
X144494286Y-143902857D01*
X144494286Y-143545714D01*
X144422858Y-143402857D01*
X144351429Y-143331429D01*
X144208572Y-143260000D01*
X143922858Y-143260000D01*
X143780000Y-143331429D01*
X143708572Y-143402857D01*
X143637143Y-143545714D01*
X144422858Y-140148571D02*
X143708572Y-140148571D01*
X143637143Y-140862857D01*
X143708572Y-140791429D01*
X143851429Y-140720000D01*
X144208572Y-140720000D01*
X144351429Y-140791429D01*
X144422858Y-140862857D01*
X144494286Y-141005714D01*
X144494286Y-141362857D01*
X144422858Y-141505714D01*
X144351429Y-141577143D01*
X144208572Y-141648571D01*
X143851429Y-141648571D01*
X143708572Y-141577143D01*
X143637143Y-141505714D01*
D11*
X141843619Y-139108571D02*
X141843619Y-137608571D01*
X142319809Y-139108571D02*
X142319809Y-137608571D01*
X142557904Y-137608571D01*
X142700762Y-137680000D01*
X142796000Y-137822857D01*
X142843619Y-137965714D01*
X142891238Y-138251429D01*
X142891238Y-138465714D01*
X142843619Y-138751429D01*
X142796000Y-138894286D01*
X142700762Y-139037143D01*
X142557904Y-139108571D01*
X142319809Y-139108571D01*
X143081714Y-139251429D02*
X143843619Y-139251429D01*
X144034095Y-139037143D02*
X144176952Y-139108571D01*
X144415048Y-139108571D01*
X144510286Y-139037143D01*
X144557905Y-138965714D01*
X144605524Y-138822857D01*
X144605524Y-138680000D01*
X144557905Y-138537143D01*
X144510286Y-138465714D01*
X144415048Y-138394286D01*
X144224571Y-138322857D01*
X144129333Y-138251429D01*
X144081714Y-138180000D01*
X144034095Y-138037143D01*
X144034095Y-137894286D01*
X144081714Y-137751429D01*
X144129333Y-137680000D01*
X144224571Y-137608571D01*
X144462667Y-137608571D01*
X144605524Y-137680000D01*
X145034095Y-139108571D02*
X145034095Y-137608571D01*
X145272190Y-137608571D01*
X145415048Y-137680000D01*
X145510286Y-137822857D01*
X145557905Y-137965714D01*
X145605524Y-138251429D01*
X145605524Y-138465714D01*
X145557905Y-138751429D01*
X145510286Y-138894286D01*
X145415048Y-139037143D01*
X145272190Y-139108571D01*
X145034095Y-139108571D01*
D13*
X143065715Y-134028571D02*
X142208572Y-134028571D01*
X142637144Y-134028571D02*
X142637144Y-132528571D01*
X142494287Y-132742857D01*
X142351429Y-132885714D01*
X142208572Y-132957143D01*
X144494286Y-134028571D02*
X143637143Y-134028571D01*
X144065715Y-134028571D02*
X144065715Y-132528571D01*
X143922858Y-132742857D01*
X143780000Y-132885714D01*
X143637143Y-132957143D01*
X143780000Y-131488571D02*
X144065715Y-131488571D01*
X144208572Y-131417143D01*
X144280000Y-131345714D01*
X144422858Y-131131429D01*
X144494286Y-130845714D01*
X144494286Y-130274286D01*
X144422858Y-130131429D01*
X144351429Y-130060000D01*
X144208572Y-129988571D01*
X143922858Y-129988571D01*
X143780000Y-130060000D01*
X143708572Y-130131429D01*
X143637143Y-130274286D01*
X143637143Y-130631429D01*
X143708572Y-130774286D01*
X143780000Y-130845714D01*
X143922858Y-130917143D01*
X144208572Y-130917143D01*
X144351429Y-130845714D01*
X144422858Y-130774286D01*
X144494286Y-130631429D01*
X143065715Y-128948571D02*
X142208572Y-128948571D01*
X142637144Y-128948571D02*
X142637144Y-127448571D01*
X142494287Y-127662857D01*
X142351429Y-127805714D01*
X142208572Y-127877143D01*
X143994286Y-127448571D02*
X144137143Y-127448571D01*
X144280000Y-127520000D01*
X144351429Y-127591429D01*
X144422858Y-127734286D01*
X144494286Y-128020000D01*
X144494286Y-128377143D01*
X144422858Y-128662857D01*
X144351429Y-128805714D01*
X144280000Y-128877143D01*
X144137143Y-128948571D01*
X143994286Y-128948571D01*
X143851429Y-128877143D01*
X143780000Y-128805714D01*
X143708572Y-128662857D01*
X143637143Y-128377143D01*
X143637143Y-128020000D01*
X143708572Y-127734286D01*
X143780000Y-127591429D01*
X143851429Y-127520000D01*
X143994286Y-127448571D01*
X142208572Y-122511429D02*
X142280001Y-122440000D01*
X142422858Y-122368571D01*
X142780001Y-122368571D01*
X142922858Y-122440000D01*
X142994287Y-122511429D01*
X143065715Y-122654286D01*
X143065715Y-122797143D01*
X142994287Y-123011429D01*
X142137144Y-123868571D01*
X143065715Y-123868571D01*
X143637143Y-122511429D02*
X143708572Y-122440000D01*
X143851429Y-122368571D01*
X144208572Y-122368571D01*
X144351429Y-122440000D01*
X144422858Y-122511429D01*
X144494286Y-122654286D01*
X144494286Y-122797143D01*
X144422858Y-123011429D01*
X143565715Y-123868571D01*
X144494286Y-123868571D01*
X142208572Y-119971429D02*
X142280001Y-119900000D01*
X142422858Y-119828571D01*
X142780001Y-119828571D01*
X142922858Y-119900000D01*
X142994287Y-119971429D01*
X143065715Y-120114286D01*
X143065715Y-120257143D01*
X142994287Y-120471429D01*
X142137144Y-121328571D01*
X143065715Y-121328571D01*
X143565715Y-119828571D02*
X144565715Y-119828571D01*
X143922858Y-121328571D01*
X143065715Y-118788571D02*
X142208572Y-118788571D01*
X142637144Y-118788571D02*
X142637144Y-117288571D01*
X142494287Y-117502857D01*
X142351429Y-117645714D01*
X142208572Y-117717143D01*
X143565715Y-117288571D02*
X144565715Y-117288571D01*
X143922858Y-118788571D01*
X144351429Y-112708571D02*
X144351429Y-113708571D01*
X143994286Y-112137143D02*
X143637143Y-113208571D01*
X144565715Y-113208571D01*
X143565715Y-109668571D02*
X144494286Y-109668571D01*
X143994286Y-110240000D01*
X144208572Y-110240000D01*
X144351429Y-110311429D01*
X144422858Y-110382857D01*
X144494286Y-110525714D01*
X144494286Y-110882857D01*
X144422858Y-111025714D01*
X144351429Y-111097143D01*
X144208572Y-111168571D01*
X143780000Y-111168571D01*
X143637143Y-111097143D01*
X143565715Y-111025714D01*
X143637143Y-107271429D02*
X143708572Y-107200000D01*
X143851429Y-107128571D01*
X144208572Y-107128571D01*
X144351429Y-107200000D01*
X144422858Y-107271429D01*
X144494286Y-107414286D01*
X144494286Y-107557143D01*
X144422858Y-107771429D01*
X143565715Y-108628571D01*
X144494286Y-108628571D01*
X142621428Y-114820000D02*
X142478571Y-114748571D01*
X142264285Y-114748571D01*
X142050000Y-114820000D01*
X141907142Y-114962857D01*
X141835714Y-115105714D01*
X141764285Y-115391429D01*
X141764285Y-115605714D01*
X141835714Y-115891429D01*
X141907142Y-116034286D01*
X142050000Y-116177143D01*
X142264285Y-116248571D01*
X142407142Y-116248571D01*
X142621428Y-116177143D01*
X142692857Y-116105714D01*
X142692857Y-115605714D01*
X142407142Y-115605714D01*
X143335714Y-116248571D02*
X143335714Y-114748571D01*
X144192857Y-116248571D01*
X144192857Y-114748571D01*
X144907143Y-116248571D02*
X144907143Y-114748571D01*
X145264286Y-114748571D01*
X145478571Y-114820000D01*
X145621429Y-114962857D01*
X145692857Y-115105714D01*
X145764286Y-115391429D01*
X145764286Y-115605714D01*
X145692857Y-115891429D01*
X145621429Y-116034286D01*
X145478571Y-116177143D01*
X145264286Y-116248571D01*
X144907143Y-116248571D01*
X142621428Y-135140000D02*
X142478571Y-135068571D01*
X142264285Y-135068571D01*
X142050000Y-135140000D01*
X141907142Y-135282857D01*
X141835714Y-135425714D01*
X141764285Y-135711429D01*
X141764285Y-135925714D01*
X141835714Y-136211429D01*
X141907142Y-136354286D01*
X142050000Y-136497143D01*
X142264285Y-136568571D01*
X142407142Y-136568571D01*
X142621428Y-136497143D01*
X142692857Y-136425714D01*
X142692857Y-135925714D01*
X142407142Y-135925714D01*
X143335714Y-136568571D02*
X143335714Y-135068571D01*
X144192857Y-136568571D01*
X144192857Y-135068571D01*
X144907143Y-136568571D02*
X144907143Y-135068571D01*
X145264286Y-135068571D01*
X145478571Y-135140000D01*
X145621429Y-135282857D01*
X145692857Y-135425714D01*
X145764286Y-135711429D01*
X145764286Y-135925714D01*
X145692857Y-136211429D01*
X145621429Y-136354286D01*
X145478571Y-136497143D01*
X145264286Y-136568571D01*
X144907143Y-136568571D01*
X142621428Y-152920000D02*
X142478571Y-152848571D01*
X142264285Y-152848571D01*
X142050000Y-152920000D01*
X141907142Y-153062857D01*
X141835714Y-153205714D01*
X141764285Y-153491429D01*
X141764285Y-153705714D01*
X141835714Y-153991429D01*
X141907142Y-154134286D01*
X142050000Y-154277143D01*
X142264285Y-154348571D01*
X142407142Y-154348571D01*
X142621428Y-154277143D01*
X142692857Y-154205714D01*
X142692857Y-153705714D01*
X142407142Y-153705714D01*
X143335714Y-154348571D02*
X143335714Y-152848571D01*
X144192857Y-154348571D01*
X144192857Y-152848571D01*
X144907143Y-154348571D02*
X144907143Y-152848571D01*
X145264286Y-152848571D01*
X145478571Y-152920000D01*
X145621429Y-153062857D01*
X145692857Y-153205714D01*
X145764286Y-153491429D01*
X145764286Y-153705714D01*
X145692857Y-153991429D01*
X145621429Y-154134286D01*
X145478571Y-154277143D01*
X145264286Y-154348571D01*
X144907143Y-154348571D01*
X154812857Y-140220000D02*
X154670000Y-140148571D01*
X154455714Y-140148571D01*
X154241429Y-140220000D01*
X154098571Y-140362857D01*
X154027143Y-140505714D01*
X153955714Y-140791429D01*
X153955714Y-141005714D01*
X154027143Y-141291429D01*
X154098571Y-141434286D01*
X154241429Y-141577143D01*
X154455714Y-141648571D01*
X154598571Y-141648571D01*
X154812857Y-141577143D01*
X154884286Y-141505714D01*
X154884286Y-141005714D01*
X154598571Y-141005714D01*
X155527143Y-141648571D02*
X155527143Y-140148571D01*
X156384286Y-141648571D01*
X156384286Y-140148571D01*
X157098572Y-141648571D02*
X157098572Y-140148571D01*
X157455715Y-140148571D01*
X157670000Y-140220000D01*
X157812858Y-140362857D01*
X157884286Y-140505714D01*
X157955715Y-140791429D01*
X157955715Y-141005714D01*
X157884286Y-141291429D01*
X157812858Y-141434286D01*
X157670000Y-141577143D01*
X157455715Y-141648571D01*
X157098572Y-141648571D01*
X154812857Y-145300000D02*
X154670000Y-145228571D01*
X154455714Y-145228571D01*
X154241429Y-145300000D01*
X154098571Y-145442857D01*
X154027143Y-145585714D01*
X153955714Y-145871429D01*
X153955714Y-146085714D01*
X154027143Y-146371429D01*
X154098571Y-146514286D01*
X154241429Y-146657143D01*
X154455714Y-146728571D01*
X154598571Y-146728571D01*
X154812857Y-146657143D01*
X154884286Y-146585714D01*
X154884286Y-146085714D01*
X154598571Y-146085714D01*
X155527143Y-146728571D02*
X155527143Y-145228571D01*
X156384286Y-146728571D01*
X156384286Y-145228571D01*
X157098572Y-146728571D02*
X157098572Y-145228571D01*
X157455715Y-145228571D01*
X157670000Y-145300000D01*
X157812858Y-145442857D01*
X157884286Y-145585714D01*
X157955715Y-145871429D01*
X157955715Y-146085714D01*
X157884286Y-146371429D01*
X157812858Y-146514286D01*
X157670000Y-146657143D01*
X157455715Y-146728571D01*
X157098572Y-146728571D01*
X154812857Y-127520000D02*
X154670000Y-127448571D01*
X154455714Y-127448571D01*
X154241429Y-127520000D01*
X154098571Y-127662857D01*
X154027143Y-127805714D01*
X153955714Y-128091429D01*
X153955714Y-128305714D01*
X154027143Y-128591429D01*
X154098571Y-128734286D01*
X154241429Y-128877143D01*
X154455714Y-128948571D01*
X154598571Y-128948571D01*
X154812857Y-128877143D01*
X154884286Y-128805714D01*
X154884286Y-128305714D01*
X154598571Y-128305714D01*
X155527143Y-128948571D02*
X155527143Y-127448571D01*
X156384286Y-128948571D01*
X156384286Y-127448571D01*
X157098572Y-128948571D02*
X157098572Y-127448571D01*
X157455715Y-127448571D01*
X157670000Y-127520000D01*
X157812858Y-127662857D01*
X157884286Y-127805714D01*
X157955715Y-128091429D01*
X157955715Y-128305714D01*
X157884286Y-128591429D01*
X157812858Y-128734286D01*
X157670000Y-128877143D01*
X157455715Y-128948571D01*
X157098572Y-128948571D01*
X154812857Y-119900000D02*
X154670000Y-119828571D01*
X154455714Y-119828571D01*
X154241429Y-119900000D01*
X154098571Y-120042857D01*
X154027143Y-120185714D01*
X153955714Y-120471429D01*
X153955714Y-120685714D01*
X154027143Y-120971429D01*
X154098571Y-121114286D01*
X154241429Y-121257143D01*
X154455714Y-121328571D01*
X154598571Y-121328571D01*
X154812857Y-121257143D01*
X154884286Y-121185714D01*
X154884286Y-120685714D01*
X154598571Y-120685714D01*
X155527143Y-121328571D02*
X155527143Y-119828571D01*
X156384286Y-121328571D01*
X156384286Y-119828571D01*
X157098572Y-121328571D02*
X157098572Y-119828571D01*
X157455715Y-119828571D01*
X157670000Y-119900000D01*
X157812858Y-120042857D01*
X157884286Y-120185714D01*
X157955715Y-120471429D01*
X157955715Y-120685714D01*
X157884286Y-120971429D01*
X157812858Y-121114286D01*
X157670000Y-121257143D01*
X157455715Y-121328571D01*
X157098572Y-121328571D01*
X154812857Y-109740000D02*
X154670000Y-109668571D01*
X154455714Y-109668571D01*
X154241429Y-109740000D01*
X154098571Y-109882857D01*
X154027143Y-110025714D01*
X153955714Y-110311429D01*
X153955714Y-110525714D01*
X154027143Y-110811429D01*
X154098571Y-110954286D01*
X154241429Y-111097143D01*
X154455714Y-111168571D01*
X154598571Y-111168571D01*
X154812857Y-111097143D01*
X154884286Y-111025714D01*
X154884286Y-110525714D01*
X154598571Y-110525714D01*
X155527143Y-111168571D02*
X155527143Y-109668571D01*
X156384286Y-111168571D01*
X156384286Y-109668571D01*
X157098572Y-111168571D02*
X157098572Y-109668571D01*
X157455715Y-109668571D01*
X157670000Y-109740000D01*
X157812858Y-109882857D01*
X157884286Y-110025714D01*
X157955715Y-110311429D01*
X157955715Y-110525714D01*
X157884286Y-110811429D01*
X157812858Y-110954286D01*
X157670000Y-111097143D01*
X157455715Y-111168571D01*
X157098572Y-111168571D01*
X141486430Y-124908571D02*
X142415001Y-124908571D01*
X141915001Y-125480000D01*
X142129287Y-125480000D01*
X142272144Y-125551429D01*
X142343573Y-125622857D01*
X142415001Y-125765714D01*
X142415001Y-126122857D01*
X142343573Y-126265714D01*
X142272144Y-126337143D01*
X142129287Y-126408571D01*
X141700715Y-126408571D01*
X141557858Y-126337143D01*
X141486430Y-126265714D01*
X142843572Y-124908571D02*
X143343572Y-126408571D01*
X143843572Y-124908571D01*
X144200715Y-124908571D02*
X145129286Y-124908571D01*
X144629286Y-125480000D01*
X144843572Y-125480000D01*
X144986429Y-125551429D01*
X145057858Y-125622857D01*
X145129286Y-125765714D01*
X145129286Y-126122857D01*
X145057858Y-126265714D01*
X144986429Y-126337143D01*
X144843572Y-126408571D01*
X144415000Y-126408571D01*
X144272143Y-126337143D01*
X144200715Y-126265714D01*
X141486430Y-104588571D02*
X142415001Y-104588571D01*
X141915001Y-105160000D01*
X142129287Y-105160000D01*
X142272144Y-105231429D01*
X142343573Y-105302857D01*
X142415001Y-105445714D01*
X142415001Y-105802857D01*
X142343573Y-105945714D01*
X142272144Y-106017143D01*
X142129287Y-106088571D01*
X141700715Y-106088571D01*
X141557858Y-106017143D01*
X141486430Y-105945714D01*
X142843572Y-104588571D02*
X143343572Y-106088571D01*
X143843572Y-104588571D01*
X144200715Y-104588571D02*
X145129286Y-104588571D01*
X144629286Y-105160000D01*
X144843572Y-105160000D01*
X144986429Y-105231429D01*
X145057858Y-105302857D01*
X145129286Y-105445714D01*
X145129286Y-105802857D01*
X145057858Y-105945714D01*
X144986429Y-106017143D01*
X144843572Y-106088571D01*
X144415000Y-106088571D01*
X144272143Y-106017143D01*
X144200715Y-105945714D01*
X156011429Y-107128571D02*
X155297143Y-107128571D01*
X155225714Y-107842857D01*
X155297143Y-107771429D01*
X155440000Y-107700000D01*
X155797143Y-107700000D01*
X155940000Y-107771429D01*
X156011429Y-107842857D01*
X156082857Y-107985714D01*
X156082857Y-108342857D01*
X156011429Y-108485714D01*
X155940000Y-108557143D01*
X155797143Y-108628571D01*
X155440000Y-108628571D01*
X155297143Y-108557143D01*
X155225714Y-108485714D01*
X156511428Y-107128571D02*
X157011428Y-108628571D01*
X157511428Y-107128571D01*
X156011429Y-104588571D02*
X155297143Y-104588571D01*
X155225714Y-105302857D01*
X155297143Y-105231429D01*
X155440000Y-105160000D01*
X155797143Y-105160000D01*
X155940000Y-105231429D01*
X156011429Y-105302857D01*
X156082857Y-105445714D01*
X156082857Y-105802857D01*
X156011429Y-105945714D01*
X155940000Y-106017143D01*
X155797143Y-106088571D01*
X155440000Y-106088571D01*
X155297143Y-106017143D01*
X155225714Y-105945714D01*
X156511428Y-104588571D02*
X157011428Y-106088571D01*
X157511428Y-104588571D01*
D14*
X149860000Y-104080000D02*
X149860000Y-106680000D01*
X149860000Y-106680000D02*
X147260000Y-106680000D01*
X147260000Y-105410000D02*
X147260000Y-104080000D01*
X147260000Y-104080000D02*
X148590000Y-104080000D01*
M02*
