G04 #@! TF.FileFunction,Legend,Top*
%FSLAX46Y46*%
G04 Gerber Fmt 4.6, Leading zero omitted, Abs format (unit mm)*
G04 Created by KiCad (PCBNEW 4.0.6-e0-6349~53~ubuntu16.04.1) date Thu Apr  6 16:37:17 2017*
%MOMM*%
%LPD*%
G01*
G04 APERTURE LIST*
%ADD10C,0.100000*%
%ADD11C,0.250000*%
%ADD12C,0.300000*%
%ADD13C,0.200000*%
%ADD14C,0.120000*%
G04 APERTURE END LIST*
D10*
D11*
X141272667Y-98121476D02*
X142106001Y-98121476D01*
X141272667Y-99371476D01*
X142106001Y-99371476D01*
X143058382Y-99311952D02*
X142939334Y-99371476D01*
X142701239Y-99371476D01*
X142582191Y-99311952D01*
X142522667Y-99192905D01*
X142522667Y-98716714D01*
X142582191Y-98597667D01*
X142701239Y-98538143D01*
X142939334Y-98538143D01*
X143058382Y-98597667D01*
X143117905Y-98716714D01*
X143117905Y-98835762D01*
X142522667Y-98954810D01*
X143653620Y-99371476D02*
X143653620Y-98538143D01*
X143653620Y-98776238D02*
X143713144Y-98657190D01*
X143772668Y-98597667D01*
X143891715Y-98538143D01*
X144010763Y-98538143D01*
X144606001Y-99371476D02*
X144486954Y-99311952D01*
X144427430Y-99252429D01*
X144367906Y-99133381D01*
X144367906Y-98776238D01*
X144427430Y-98657190D01*
X144486954Y-98597667D01*
X144606001Y-98538143D01*
X144784573Y-98538143D01*
X144903621Y-98597667D01*
X144963144Y-98657190D01*
X145022668Y-98776238D01*
X145022668Y-99133381D01*
X144963144Y-99252429D01*
X144903621Y-99311952D01*
X144784573Y-99371476D01*
X144606001Y-99371476D01*
X147046477Y-99371476D02*
X147046477Y-98716714D01*
X146986954Y-98597667D01*
X146867906Y-98538143D01*
X146629811Y-98538143D01*
X146510763Y-98597667D01*
X147046477Y-99311952D02*
X146927430Y-99371476D01*
X146629811Y-99371476D01*
X146510763Y-99311952D01*
X146451239Y-99192905D01*
X146451239Y-99073857D01*
X146510763Y-98954810D01*
X146629811Y-98895286D01*
X146927430Y-98895286D01*
X147046477Y-98835762D01*
X147641715Y-98538143D02*
X147641715Y-99371476D01*
X147641715Y-98657190D02*
X147701239Y-98597667D01*
X147820286Y-98538143D01*
X147998858Y-98538143D01*
X148117906Y-98597667D01*
X148177429Y-98716714D01*
X148177429Y-99371476D01*
X149308381Y-99371476D02*
X149308381Y-98121476D01*
X149308381Y-99311952D02*
X149189334Y-99371476D01*
X148951238Y-99371476D01*
X148832191Y-99311952D01*
X148772667Y-99252429D01*
X148713143Y-99133381D01*
X148713143Y-98776238D01*
X148772667Y-98657190D01*
X148832191Y-98597667D01*
X148951238Y-98538143D01*
X149189334Y-98538143D01*
X149308381Y-98597667D01*
X150856000Y-99371476D02*
X150856000Y-98121476D01*
X151272667Y-99014333D01*
X151689333Y-98121476D01*
X151689333Y-99371476D01*
X152463142Y-99371476D02*
X152344095Y-99311952D01*
X152284571Y-99252429D01*
X152225047Y-99133381D01*
X152225047Y-98776238D01*
X152284571Y-98657190D01*
X152344095Y-98597667D01*
X152463142Y-98538143D01*
X152641714Y-98538143D01*
X152760762Y-98597667D01*
X152820285Y-98657190D01*
X152879809Y-98776238D01*
X152879809Y-99133381D01*
X152820285Y-99252429D01*
X152760762Y-99311952D01*
X152641714Y-99371476D01*
X152463142Y-99371476D01*
X153951237Y-99371476D02*
X153951237Y-98121476D01*
X153951237Y-99311952D02*
X153832190Y-99371476D01*
X153594094Y-99371476D01*
X153475047Y-99311952D01*
X153415523Y-99252429D01*
X153355999Y-99133381D01*
X153355999Y-98776238D01*
X153415523Y-98657190D01*
X153475047Y-98597667D01*
X153594094Y-98538143D01*
X153832190Y-98538143D01*
X153951237Y-98597667D01*
X155022666Y-99311952D02*
X154903618Y-99371476D01*
X154665523Y-99371476D01*
X154546475Y-99311952D01*
X154486951Y-99192905D01*
X154486951Y-98716714D01*
X154546475Y-98597667D01*
X154665523Y-98538143D01*
X154903618Y-98538143D01*
X155022666Y-98597667D01*
X155082189Y-98716714D01*
X155082189Y-98835762D01*
X154486951Y-98954810D01*
X155796475Y-99371476D02*
X155677428Y-99311952D01*
X155617904Y-99192905D01*
X155617904Y-98121476D01*
X157105999Y-98121476D02*
X157879809Y-98121476D01*
X157463142Y-98597667D01*
X157641714Y-98597667D01*
X157760761Y-98657190D01*
X157820285Y-98716714D01*
X157879809Y-98835762D01*
X157879809Y-99133381D01*
X157820285Y-99252429D01*
X157760761Y-99311952D01*
X157641714Y-99371476D01*
X157284571Y-99371476D01*
X157165523Y-99311952D01*
X157105999Y-99252429D01*
X142155286Y-95006976D02*
X141738619Y-94411738D01*
X141441000Y-95006976D02*
X141441000Y-93756976D01*
X141917191Y-93756976D01*
X142036238Y-93816500D01*
X142095762Y-93876024D01*
X142155286Y-93995071D01*
X142155286Y-94173643D01*
X142095762Y-94292690D01*
X142036238Y-94352214D01*
X141917191Y-94411738D01*
X141441000Y-94411738D01*
X143226714Y-95006976D02*
X143226714Y-94352214D01*
X143167191Y-94233167D01*
X143048143Y-94173643D01*
X142810048Y-94173643D01*
X142691000Y-94233167D01*
X143226714Y-94947452D02*
X143107667Y-95006976D01*
X142810048Y-95006976D01*
X142691000Y-94947452D01*
X142631476Y-94828405D01*
X142631476Y-94709357D01*
X142691000Y-94590310D01*
X142810048Y-94530786D01*
X143107667Y-94530786D01*
X143226714Y-94471262D01*
X143762428Y-94947452D02*
X143881476Y-95006976D01*
X144119571Y-95006976D01*
X144238619Y-94947452D01*
X144298143Y-94828405D01*
X144298143Y-94768881D01*
X144238619Y-94649833D01*
X144119571Y-94590310D01*
X143941000Y-94590310D01*
X143821952Y-94530786D01*
X143762428Y-94411738D01*
X143762428Y-94352214D01*
X143821952Y-94233167D01*
X143941000Y-94173643D01*
X144119571Y-94173643D01*
X144238619Y-94233167D01*
X144833857Y-95006976D02*
X144833857Y-93756976D01*
X144833857Y-94233167D02*
X144952905Y-94173643D01*
X145191000Y-94173643D01*
X145310048Y-94233167D01*
X145369571Y-94292690D01*
X145429095Y-94411738D01*
X145429095Y-94768881D01*
X145369571Y-94887929D01*
X145310048Y-94947452D01*
X145191000Y-95006976D01*
X144952905Y-95006976D01*
X144833857Y-94947452D01*
X146441000Y-94947452D02*
X146321952Y-95006976D01*
X146083857Y-95006976D01*
X145964809Y-94947452D01*
X145905285Y-94828405D01*
X145905285Y-94352214D01*
X145964809Y-94233167D01*
X146083857Y-94173643D01*
X146321952Y-94173643D01*
X146441000Y-94233167D01*
X146500523Y-94352214D01*
X146500523Y-94471262D01*
X145905285Y-94590310D01*
X147036238Y-95006976D02*
X147036238Y-94173643D01*
X147036238Y-94411738D02*
X147095762Y-94292690D01*
X147155286Y-94233167D01*
X147274333Y-94173643D01*
X147393381Y-94173643D01*
X147810048Y-95006976D02*
X147810048Y-94173643D01*
X147810048Y-94411738D02*
X147869572Y-94292690D01*
X147929096Y-94233167D01*
X148048143Y-94173643D01*
X148167191Y-94173643D01*
X148464810Y-94173643D02*
X148762429Y-95006976D01*
X149060049Y-94173643D02*
X148762429Y-95006976D01*
X148643382Y-95304595D01*
X148583858Y-95364119D01*
X148464810Y-95423643D01*
X150488620Y-95006976D02*
X150488620Y-93756976D01*
X150964811Y-93756976D01*
X151083858Y-93816500D01*
X151143382Y-93876024D01*
X151202906Y-93995071D01*
X151202906Y-94173643D01*
X151143382Y-94292690D01*
X151083858Y-94352214D01*
X150964811Y-94411738D01*
X150488620Y-94411738D01*
X151738620Y-95006976D02*
X151738620Y-94173643D01*
X151738620Y-93756976D02*
X151679096Y-93816500D01*
X151738620Y-93876024D01*
X151798144Y-93816500D01*
X151738620Y-93756976D01*
X151738620Y-93876024D01*
X143345762Y-96774833D02*
X143941000Y-96774833D01*
X143226715Y-97131976D02*
X143643381Y-95881976D01*
X144060048Y-97131976D01*
X144476715Y-96655786D02*
X145429096Y-96655786D01*
X144952906Y-97131976D02*
X144952906Y-96179595D01*
X146083858Y-97072452D02*
X146083858Y-97131976D01*
X146024334Y-97251024D01*
X145964810Y-97310548D01*
X147988620Y-96477214D02*
X148167191Y-96536738D01*
X148226715Y-96596262D01*
X148286239Y-96715310D01*
X148286239Y-96893881D01*
X148226715Y-97012929D01*
X148167191Y-97072452D01*
X148048144Y-97131976D01*
X147571953Y-97131976D01*
X147571953Y-95881976D01*
X147988620Y-95881976D01*
X148107667Y-95941500D01*
X148167191Y-96001024D01*
X148226715Y-96120071D01*
X148226715Y-96239119D01*
X148167191Y-96358167D01*
X148107667Y-96417690D01*
X147988620Y-96477214D01*
X147571953Y-96477214D01*
X148821953Y-96655786D02*
X149774334Y-96655786D01*
X149298144Y-97131976D02*
X149298144Y-96179595D01*
D12*
X152987429Y-101683429D02*
X153058858Y-101612000D01*
X153201715Y-101540571D01*
X153558858Y-101540571D01*
X153701715Y-101612000D01*
X153773144Y-101683429D01*
X153844572Y-101826286D01*
X153844572Y-101969143D01*
X153773144Y-102183429D01*
X152916001Y-103040571D01*
X153844572Y-103040571D01*
X146986572Y-103040571D02*
X146129429Y-103040571D01*
X146558001Y-103040571D02*
X146558001Y-101540571D01*
X146415144Y-101754857D01*
X146272286Y-101897714D01*
X146129429Y-101969143D01*
D13*
X140970000Y-154940000D02*
X141605000Y-154940000D01*
X140335000Y-154940000D02*
X140970000Y-154940000D01*
X140335000Y-104140000D02*
X140335000Y-154940000D01*
X159385000Y-114300000D02*
X140335000Y-114300000D01*
X140335000Y-152400000D02*
X159385000Y-152400000D01*
X140335000Y-149860000D02*
X159385000Y-149860000D01*
X140335000Y-147320000D02*
X159385000Y-147320000D01*
X140335000Y-144780000D02*
X159385000Y-144780000D01*
X140335000Y-142240000D02*
X159385000Y-142240000D01*
X140335000Y-139700000D02*
X159385000Y-139700000D01*
X159385000Y-137160000D02*
X159385000Y-137795000D01*
X140335000Y-137160000D02*
X159385000Y-137160000D01*
X159385000Y-134620000D02*
X159385000Y-135255000D01*
X140335000Y-134620000D02*
X159385000Y-134620000D01*
X140335000Y-132080000D02*
X159385000Y-132080000D01*
X140335000Y-129540000D02*
X159385000Y-129540000D01*
X140335000Y-127000000D02*
X159385000Y-127000000D01*
X140335000Y-124460000D02*
X159385000Y-124460000D01*
X140335000Y-121920000D02*
X159385000Y-121920000D01*
X140335000Y-119380000D02*
X159385000Y-119380000D01*
X140335000Y-116840000D02*
X159385000Y-116840000D01*
X140335000Y-111760000D02*
X159385000Y-111760000D01*
X140335000Y-109220000D02*
X159385000Y-109220000D01*
X159385000Y-106680000D02*
X140970000Y-106680000D01*
X140335000Y-106680000D02*
X159385000Y-106680000D01*
X159385000Y-104140000D02*
X140335000Y-104140000D01*
X159385000Y-154940000D02*
X159385000Y-104140000D01*
X149860000Y-154940000D02*
X159385000Y-154940000D01*
X140970000Y-154940000D02*
X149860000Y-154940000D01*
X149860000Y-154940000D02*
X140970000Y-154940000D01*
X149860000Y-104140000D02*
X149860000Y-154940000D01*
D11*
X154431905Y-112280000D02*
X154336667Y-112208571D01*
X154193810Y-112208571D01*
X154050952Y-112280000D01*
X153955714Y-112422857D01*
X153908095Y-112565714D01*
X153860476Y-112851429D01*
X153860476Y-113065714D01*
X153908095Y-113351429D01*
X153955714Y-113494286D01*
X154050952Y-113637143D01*
X154193810Y-113708571D01*
X154289048Y-113708571D01*
X154431905Y-113637143D01*
X154479524Y-113565714D01*
X154479524Y-113065714D01*
X154289048Y-113065714D01*
X154908095Y-113708571D02*
X154908095Y-112208571D01*
X155289048Y-112208571D01*
X155384286Y-112280000D01*
X155431905Y-112351429D01*
X155479524Y-112494286D01*
X155479524Y-112708571D01*
X155431905Y-112851429D01*
X155384286Y-112922857D01*
X155289048Y-112994286D01*
X154908095Y-112994286D01*
X155908095Y-113708571D02*
X155908095Y-112208571D01*
X156574761Y-112208571D02*
X156765238Y-112208571D01*
X156860476Y-112280000D01*
X156955714Y-112422857D01*
X157003333Y-112708571D01*
X157003333Y-113208571D01*
X156955714Y-113494286D01*
X156860476Y-113637143D01*
X156765238Y-113708571D01*
X156574761Y-113708571D01*
X156479523Y-113637143D01*
X156384285Y-113494286D01*
X156336666Y-113208571D01*
X156336666Y-112708571D01*
X156384285Y-112422857D01*
X156479523Y-112280000D01*
X156574761Y-112208571D01*
X157955714Y-113708571D02*
X157384285Y-113708571D01*
X157669999Y-113708571D02*
X157669999Y-112208571D01*
X157574761Y-112422857D01*
X157479523Y-112565714D01*
X157384285Y-112637143D01*
X158812857Y-112708571D02*
X158812857Y-113708571D01*
X158574761Y-112137143D02*
X158336666Y-113208571D01*
X158955714Y-113208571D01*
X154431905Y-114820000D02*
X154336667Y-114748571D01*
X154193810Y-114748571D01*
X154050952Y-114820000D01*
X153955714Y-114962857D01*
X153908095Y-115105714D01*
X153860476Y-115391429D01*
X153860476Y-115605714D01*
X153908095Y-115891429D01*
X153955714Y-116034286D01*
X154050952Y-116177143D01*
X154193810Y-116248571D01*
X154289048Y-116248571D01*
X154431905Y-116177143D01*
X154479524Y-116105714D01*
X154479524Y-115605714D01*
X154289048Y-115605714D01*
X154908095Y-116248571D02*
X154908095Y-114748571D01*
X155289048Y-114748571D01*
X155384286Y-114820000D01*
X155431905Y-114891429D01*
X155479524Y-115034286D01*
X155479524Y-115248571D01*
X155431905Y-115391429D01*
X155384286Y-115462857D01*
X155289048Y-115534286D01*
X154908095Y-115534286D01*
X155908095Y-116248571D02*
X155908095Y-114748571D01*
X156574761Y-114748571D02*
X156765238Y-114748571D01*
X156860476Y-114820000D01*
X156955714Y-114962857D01*
X157003333Y-115248571D01*
X157003333Y-115748571D01*
X156955714Y-116034286D01*
X156860476Y-116177143D01*
X156765238Y-116248571D01*
X156574761Y-116248571D01*
X156479523Y-116177143D01*
X156384285Y-116034286D01*
X156336666Y-115748571D01*
X156336666Y-115248571D01*
X156384285Y-114962857D01*
X156479523Y-114820000D01*
X156574761Y-114748571D01*
X157955714Y-116248571D02*
X157384285Y-116248571D01*
X157669999Y-116248571D02*
X157669999Y-114748571D01*
X157574761Y-114962857D01*
X157479523Y-115105714D01*
X157384285Y-115177143D01*
X158860476Y-114748571D02*
X158384285Y-114748571D01*
X158336666Y-115462857D01*
X158384285Y-115391429D01*
X158479523Y-115320000D01*
X158717619Y-115320000D01*
X158812857Y-115391429D01*
X158860476Y-115462857D01*
X158908095Y-115605714D01*
X158908095Y-115962857D01*
X158860476Y-116105714D01*
X158812857Y-116177143D01*
X158717619Y-116248571D01*
X158479523Y-116248571D01*
X158384285Y-116177143D01*
X158336666Y-116105714D01*
X154431905Y-117360000D02*
X154336667Y-117288571D01*
X154193810Y-117288571D01*
X154050952Y-117360000D01*
X153955714Y-117502857D01*
X153908095Y-117645714D01*
X153860476Y-117931429D01*
X153860476Y-118145714D01*
X153908095Y-118431429D01*
X153955714Y-118574286D01*
X154050952Y-118717143D01*
X154193810Y-118788571D01*
X154289048Y-118788571D01*
X154431905Y-118717143D01*
X154479524Y-118645714D01*
X154479524Y-118145714D01*
X154289048Y-118145714D01*
X154908095Y-118788571D02*
X154908095Y-117288571D01*
X155289048Y-117288571D01*
X155384286Y-117360000D01*
X155431905Y-117431429D01*
X155479524Y-117574286D01*
X155479524Y-117788571D01*
X155431905Y-117931429D01*
X155384286Y-118002857D01*
X155289048Y-118074286D01*
X154908095Y-118074286D01*
X155908095Y-118788571D02*
X155908095Y-117288571D01*
X156574761Y-117288571D02*
X156765238Y-117288571D01*
X156860476Y-117360000D01*
X156955714Y-117502857D01*
X157003333Y-117788571D01*
X157003333Y-118288571D01*
X156955714Y-118574286D01*
X156860476Y-118717143D01*
X156765238Y-118788571D01*
X156574761Y-118788571D01*
X156479523Y-118717143D01*
X156384285Y-118574286D01*
X156336666Y-118288571D01*
X156336666Y-117788571D01*
X156384285Y-117502857D01*
X156479523Y-117360000D01*
X156574761Y-117288571D01*
X157955714Y-118788571D02*
X157384285Y-118788571D01*
X157669999Y-118788571D02*
X157669999Y-117288571D01*
X157574761Y-117502857D01*
X157479523Y-117645714D01*
X157384285Y-117717143D01*
X158527142Y-117931429D02*
X158431904Y-117860000D01*
X158384285Y-117788571D01*
X158336666Y-117645714D01*
X158336666Y-117574286D01*
X158384285Y-117431429D01*
X158431904Y-117360000D01*
X158527142Y-117288571D01*
X158717619Y-117288571D01*
X158812857Y-117360000D01*
X158860476Y-117431429D01*
X158908095Y-117574286D01*
X158908095Y-117645714D01*
X158860476Y-117788571D01*
X158812857Y-117860000D01*
X158717619Y-117931429D01*
X158527142Y-117931429D01*
X158431904Y-118002857D01*
X158384285Y-118074286D01*
X158336666Y-118217143D01*
X158336666Y-118502857D01*
X158384285Y-118645714D01*
X158431904Y-118717143D01*
X158527142Y-118788571D01*
X158717619Y-118788571D01*
X158812857Y-118717143D01*
X158860476Y-118645714D01*
X158908095Y-118502857D01*
X158908095Y-118217143D01*
X158860476Y-118074286D01*
X158812857Y-118002857D01*
X158717619Y-117931429D01*
X154431905Y-122440000D02*
X154336667Y-122368571D01*
X154193810Y-122368571D01*
X154050952Y-122440000D01*
X153955714Y-122582857D01*
X153908095Y-122725714D01*
X153860476Y-123011429D01*
X153860476Y-123225714D01*
X153908095Y-123511429D01*
X153955714Y-123654286D01*
X154050952Y-123797143D01*
X154193810Y-123868571D01*
X154289048Y-123868571D01*
X154431905Y-123797143D01*
X154479524Y-123725714D01*
X154479524Y-123225714D01*
X154289048Y-123225714D01*
X154908095Y-123868571D02*
X154908095Y-122368571D01*
X155289048Y-122368571D01*
X155384286Y-122440000D01*
X155431905Y-122511429D01*
X155479524Y-122654286D01*
X155479524Y-122868571D01*
X155431905Y-123011429D01*
X155384286Y-123082857D01*
X155289048Y-123154286D01*
X154908095Y-123154286D01*
X155908095Y-123868571D02*
X155908095Y-122368571D01*
X156574761Y-122368571D02*
X156765238Y-122368571D01*
X156860476Y-122440000D01*
X156955714Y-122582857D01*
X157003333Y-122868571D01*
X157003333Y-123368571D01*
X156955714Y-123654286D01*
X156860476Y-123797143D01*
X156765238Y-123868571D01*
X156574761Y-123868571D01*
X156479523Y-123797143D01*
X156384285Y-123654286D01*
X156336666Y-123368571D01*
X156336666Y-122868571D01*
X156384285Y-122582857D01*
X156479523Y-122440000D01*
X156574761Y-122368571D01*
X157384285Y-122511429D02*
X157431904Y-122440000D01*
X157527142Y-122368571D01*
X157765238Y-122368571D01*
X157860476Y-122440000D01*
X157908095Y-122511429D01*
X157955714Y-122654286D01*
X157955714Y-122797143D01*
X157908095Y-123011429D01*
X157336666Y-123868571D01*
X157955714Y-123868571D01*
X158289047Y-122368571D02*
X158908095Y-122368571D01*
X158574761Y-122940000D01*
X158717619Y-122940000D01*
X158812857Y-123011429D01*
X158860476Y-123082857D01*
X158908095Y-123225714D01*
X158908095Y-123582857D01*
X158860476Y-123725714D01*
X158812857Y-123797143D01*
X158717619Y-123868571D01*
X158431904Y-123868571D01*
X158336666Y-123797143D01*
X158289047Y-123725714D01*
X154431905Y-124980000D02*
X154336667Y-124908571D01*
X154193810Y-124908571D01*
X154050952Y-124980000D01*
X153955714Y-125122857D01*
X153908095Y-125265714D01*
X153860476Y-125551429D01*
X153860476Y-125765714D01*
X153908095Y-126051429D01*
X153955714Y-126194286D01*
X154050952Y-126337143D01*
X154193810Y-126408571D01*
X154289048Y-126408571D01*
X154431905Y-126337143D01*
X154479524Y-126265714D01*
X154479524Y-125765714D01*
X154289048Y-125765714D01*
X154908095Y-126408571D02*
X154908095Y-124908571D01*
X155289048Y-124908571D01*
X155384286Y-124980000D01*
X155431905Y-125051429D01*
X155479524Y-125194286D01*
X155479524Y-125408571D01*
X155431905Y-125551429D01*
X155384286Y-125622857D01*
X155289048Y-125694286D01*
X154908095Y-125694286D01*
X155908095Y-126408571D02*
X155908095Y-124908571D01*
X156574761Y-124908571D02*
X156765238Y-124908571D01*
X156860476Y-124980000D01*
X156955714Y-125122857D01*
X157003333Y-125408571D01*
X157003333Y-125908571D01*
X156955714Y-126194286D01*
X156860476Y-126337143D01*
X156765238Y-126408571D01*
X156574761Y-126408571D01*
X156479523Y-126337143D01*
X156384285Y-126194286D01*
X156336666Y-125908571D01*
X156336666Y-125408571D01*
X156384285Y-125122857D01*
X156479523Y-124980000D01*
X156574761Y-124908571D01*
X157384285Y-125051429D02*
X157431904Y-124980000D01*
X157527142Y-124908571D01*
X157765238Y-124908571D01*
X157860476Y-124980000D01*
X157908095Y-125051429D01*
X157955714Y-125194286D01*
X157955714Y-125337143D01*
X157908095Y-125551429D01*
X157336666Y-126408571D01*
X157955714Y-126408571D01*
X158812857Y-125408571D02*
X158812857Y-126408571D01*
X158574761Y-124837143D02*
X158336666Y-125908571D01*
X158955714Y-125908571D01*
X154431905Y-130060000D02*
X154336667Y-129988571D01*
X154193810Y-129988571D01*
X154050952Y-130060000D01*
X153955714Y-130202857D01*
X153908095Y-130345714D01*
X153860476Y-130631429D01*
X153860476Y-130845714D01*
X153908095Y-131131429D01*
X153955714Y-131274286D01*
X154050952Y-131417143D01*
X154193810Y-131488571D01*
X154289048Y-131488571D01*
X154431905Y-131417143D01*
X154479524Y-131345714D01*
X154479524Y-130845714D01*
X154289048Y-130845714D01*
X154908095Y-131488571D02*
X154908095Y-129988571D01*
X155289048Y-129988571D01*
X155384286Y-130060000D01*
X155431905Y-130131429D01*
X155479524Y-130274286D01*
X155479524Y-130488571D01*
X155431905Y-130631429D01*
X155384286Y-130702857D01*
X155289048Y-130774286D01*
X154908095Y-130774286D01*
X155908095Y-131488571D02*
X155908095Y-129988571D01*
X156574761Y-129988571D02*
X156765238Y-129988571D01*
X156860476Y-130060000D01*
X156955714Y-130202857D01*
X157003333Y-130488571D01*
X157003333Y-130988571D01*
X156955714Y-131274286D01*
X156860476Y-131417143D01*
X156765238Y-131488571D01*
X156574761Y-131488571D01*
X156479523Y-131417143D01*
X156384285Y-131274286D01*
X156336666Y-130988571D01*
X156336666Y-130488571D01*
X156384285Y-130202857D01*
X156479523Y-130060000D01*
X156574761Y-129988571D01*
X157384285Y-130131429D02*
X157431904Y-130060000D01*
X157527142Y-129988571D01*
X157765238Y-129988571D01*
X157860476Y-130060000D01*
X157908095Y-130131429D01*
X157955714Y-130274286D01*
X157955714Y-130417143D01*
X157908095Y-130631429D01*
X157336666Y-131488571D01*
X157955714Y-131488571D01*
X158860476Y-129988571D02*
X158384285Y-129988571D01*
X158336666Y-130702857D01*
X158384285Y-130631429D01*
X158479523Y-130560000D01*
X158717619Y-130560000D01*
X158812857Y-130631429D01*
X158860476Y-130702857D01*
X158908095Y-130845714D01*
X158908095Y-131202857D01*
X158860476Y-131345714D01*
X158812857Y-131417143D01*
X158717619Y-131488571D01*
X158479523Y-131488571D01*
X158384285Y-131417143D01*
X158336666Y-131345714D01*
X154431905Y-132600000D02*
X154336667Y-132528571D01*
X154193810Y-132528571D01*
X154050952Y-132600000D01*
X153955714Y-132742857D01*
X153908095Y-132885714D01*
X153860476Y-133171429D01*
X153860476Y-133385714D01*
X153908095Y-133671429D01*
X153955714Y-133814286D01*
X154050952Y-133957143D01*
X154193810Y-134028571D01*
X154289048Y-134028571D01*
X154431905Y-133957143D01*
X154479524Y-133885714D01*
X154479524Y-133385714D01*
X154289048Y-133385714D01*
X154908095Y-134028571D02*
X154908095Y-132528571D01*
X155289048Y-132528571D01*
X155384286Y-132600000D01*
X155431905Y-132671429D01*
X155479524Y-132814286D01*
X155479524Y-133028571D01*
X155431905Y-133171429D01*
X155384286Y-133242857D01*
X155289048Y-133314286D01*
X154908095Y-133314286D01*
X155908095Y-134028571D02*
X155908095Y-132528571D01*
X156574761Y-132528571D02*
X156765238Y-132528571D01*
X156860476Y-132600000D01*
X156955714Y-132742857D01*
X157003333Y-133028571D01*
X157003333Y-133528571D01*
X156955714Y-133814286D01*
X156860476Y-133957143D01*
X156765238Y-134028571D01*
X156574761Y-134028571D01*
X156479523Y-133957143D01*
X156384285Y-133814286D01*
X156336666Y-133528571D01*
X156336666Y-133028571D01*
X156384285Y-132742857D01*
X156479523Y-132600000D01*
X156574761Y-132528571D01*
X157574761Y-133171429D02*
X157479523Y-133100000D01*
X157431904Y-133028571D01*
X157384285Y-132885714D01*
X157384285Y-132814286D01*
X157431904Y-132671429D01*
X157479523Y-132600000D01*
X157574761Y-132528571D01*
X157765238Y-132528571D01*
X157860476Y-132600000D01*
X157908095Y-132671429D01*
X157955714Y-132814286D01*
X157955714Y-132885714D01*
X157908095Y-133028571D01*
X157860476Y-133100000D01*
X157765238Y-133171429D01*
X157574761Y-133171429D01*
X157479523Y-133242857D01*
X157431904Y-133314286D01*
X157384285Y-133457143D01*
X157384285Y-133742857D01*
X157431904Y-133885714D01*
X157479523Y-133957143D01*
X157574761Y-134028571D01*
X157765238Y-134028571D01*
X157860476Y-133957143D01*
X157908095Y-133885714D01*
X157955714Y-133742857D01*
X157955714Y-133457143D01*
X157908095Y-133314286D01*
X157860476Y-133242857D01*
X157765238Y-133171429D01*
X154431905Y-135140000D02*
X154336667Y-135068571D01*
X154193810Y-135068571D01*
X154050952Y-135140000D01*
X153955714Y-135282857D01*
X153908095Y-135425714D01*
X153860476Y-135711429D01*
X153860476Y-135925714D01*
X153908095Y-136211429D01*
X153955714Y-136354286D01*
X154050952Y-136497143D01*
X154193810Y-136568571D01*
X154289048Y-136568571D01*
X154431905Y-136497143D01*
X154479524Y-136425714D01*
X154479524Y-135925714D01*
X154289048Y-135925714D01*
X154908095Y-136568571D02*
X154908095Y-135068571D01*
X155289048Y-135068571D01*
X155384286Y-135140000D01*
X155431905Y-135211429D01*
X155479524Y-135354286D01*
X155479524Y-135568571D01*
X155431905Y-135711429D01*
X155384286Y-135782857D01*
X155289048Y-135854286D01*
X154908095Y-135854286D01*
X155908095Y-136568571D02*
X155908095Y-135068571D01*
X156574761Y-135068571D02*
X156765238Y-135068571D01*
X156860476Y-135140000D01*
X156955714Y-135282857D01*
X157003333Y-135568571D01*
X157003333Y-136068571D01*
X156955714Y-136354286D01*
X156860476Y-136497143D01*
X156765238Y-136568571D01*
X156574761Y-136568571D01*
X156479523Y-136497143D01*
X156384285Y-136354286D01*
X156336666Y-136068571D01*
X156336666Y-135568571D01*
X156384285Y-135282857D01*
X156479523Y-135140000D01*
X156574761Y-135068571D01*
X157336666Y-135068571D02*
X158003333Y-135068571D01*
X157574761Y-136568571D01*
X154431905Y-137680000D02*
X154336667Y-137608571D01*
X154193810Y-137608571D01*
X154050952Y-137680000D01*
X153955714Y-137822857D01*
X153908095Y-137965714D01*
X153860476Y-138251429D01*
X153860476Y-138465714D01*
X153908095Y-138751429D01*
X153955714Y-138894286D01*
X154050952Y-139037143D01*
X154193810Y-139108571D01*
X154289048Y-139108571D01*
X154431905Y-139037143D01*
X154479524Y-138965714D01*
X154479524Y-138465714D01*
X154289048Y-138465714D01*
X154908095Y-139108571D02*
X154908095Y-137608571D01*
X155289048Y-137608571D01*
X155384286Y-137680000D01*
X155431905Y-137751429D01*
X155479524Y-137894286D01*
X155479524Y-138108571D01*
X155431905Y-138251429D01*
X155384286Y-138322857D01*
X155289048Y-138394286D01*
X154908095Y-138394286D01*
X155908095Y-139108571D02*
X155908095Y-137608571D01*
X156574761Y-137608571D02*
X156765238Y-137608571D01*
X156860476Y-137680000D01*
X156955714Y-137822857D01*
X157003333Y-138108571D01*
X157003333Y-138608571D01*
X156955714Y-138894286D01*
X156860476Y-139037143D01*
X156765238Y-139108571D01*
X156574761Y-139108571D01*
X156479523Y-139037143D01*
X156384285Y-138894286D01*
X156336666Y-138608571D01*
X156336666Y-138108571D01*
X156384285Y-137822857D01*
X156479523Y-137680000D01*
X156574761Y-137608571D01*
X157955714Y-139108571D02*
X157384285Y-139108571D01*
X157669999Y-139108571D02*
X157669999Y-137608571D01*
X157574761Y-137822857D01*
X157479523Y-137965714D01*
X157384285Y-138037143D01*
X154431905Y-142760000D02*
X154336667Y-142688571D01*
X154193810Y-142688571D01*
X154050952Y-142760000D01*
X153955714Y-142902857D01*
X153908095Y-143045714D01*
X153860476Y-143331429D01*
X153860476Y-143545714D01*
X153908095Y-143831429D01*
X153955714Y-143974286D01*
X154050952Y-144117143D01*
X154193810Y-144188571D01*
X154289048Y-144188571D01*
X154431905Y-144117143D01*
X154479524Y-144045714D01*
X154479524Y-143545714D01*
X154289048Y-143545714D01*
X154908095Y-144188571D02*
X154908095Y-142688571D01*
X155289048Y-142688571D01*
X155384286Y-142760000D01*
X155431905Y-142831429D01*
X155479524Y-142974286D01*
X155479524Y-143188571D01*
X155431905Y-143331429D01*
X155384286Y-143402857D01*
X155289048Y-143474286D01*
X154908095Y-143474286D01*
X155908095Y-144188571D02*
X155908095Y-142688571D01*
X156574761Y-142688571D02*
X156765238Y-142688571D01*
X156860476Y-142760000D01*
X156955714Y-142902857D01*
X157003333Y-143188571D01*
X157003333Y-143688571D01*
X156955714Y-143974286D01*
X156860476Y-144117143D01*
X156765238Y-144188571D01*
X156574761Y-144188571D01*
X156479523Y-144117143D01*
X156384285Y-143974286D01*
X156336666Y-143688571D01*
X156336666Y-143188571D01*
X156384285Y-142902857D01*
X156479523Y-142760000D01*
X156574761Y-142688571D01*
X157955714Y-144188571D02*
X157384285Y-144188571D01*
X157669999Y-144188571D02*
X157669999Y-142688571D01*
X157574761Y-142902857D01*
X157479523Y-143045714D01*
X157384285Y-143117143D01*
X158336666Y-142831429D02*
X158384285Y-142760000D01*
X158479523Y-142688571D01*
X158717619Y-142688571D01*
X158812857Y-142760000D01*
X158860476Y-142831429D01*
X158908095Y-142974286D01*
X158908095Y-143117143D01*
X158860476Y-143331429D01*
X158289047Y-144188571D01*
X158908095Y-144188571D01*
X154431905Y-152920000D02*
X154336667Y-152848571D01*
X154193810Y-152848571D01*
X154050952Y-152920000D01*
X153955714Y-153062857D01*
X153908095Y-153205714D01*
X153860476Y-153491429D01*
X153860476Y-153705714D01*
X153908095Y-153991429D01*
X153955714Y-154134286D01*
X154050952Y-154277143D01*
X154193810Y-154348571D01*
X154289048Y-154348571D01*
X154431905Y-154277143D01*
X154479524Y-154205714D01*
X154479524Y-153705714D01*
X154289048Y-153705714D01*
X154908095Y-154348571D02*
X154908095Y-152848571D01*
X155289048Y-152848571D01*
X155384286Y-152920000D01*
X155431905Y-152991429D01*
X155479524Y-153134286D01*
X155479524Y-153348571D01*
X155431905Y-153491429D01*
X155384286Y-153562857D01*
X155289048Y-153634286D01*
X154908095Y-153634286D01*
X155908095Y-154348571D02*
X155908095Y-152848571D01*
X156574761Y-152848571D02*
X156765238Y-152848571D01*
X156860476Y-152920000D01*
X156955714Y-153062857D01*
X157003333Y-153348571D01*
X157003333Y-153848571D01*
X156955714Y-154134286D01*
X156860476Y-154277143D01*
X156765238Y-154348571D01*
X156574761Y-154348571D01*
X156479523Y-154277143D01*
X156384285Y-154134286D01*
X156336666Y-153848571D01*
X156336666Y-153348571D01*
X156384285Y-153062857D01*
X156479523Y-152920000D01*
X156574761Y-152848571D01*
X157384285Y-152991429D02*
X157431904Y-152920000D01*
X157527142Y-152848571D01*
X157765238Y-152848571D01*
X157860476Y-152920000D01*
X157908095Y-152991429D01*
X157955714Y-153134286D01*
X157955714Y-153277143D01*
X157908095Y-153491429D01*
X157336666Y-154348571D01*
X157955714Y-154348571D01*
X158908095Y-154348571D02*
X158336666Y-154348571D01*
X158622380Y-154348571D02*
X158622380Y-152848571D01*
X158527142Y-153062857D01*
X158431904Y-153205714D01*
X158336666Y-153277143D01*
X154431905Y-150380000D02*
X154336667Y-150308571D01*
X154193810Y-150308571D01*
X154050952Y-150380000D01*
X153955714Y-150522857D01*
X153908095Y-150665714D01*
X153860476Y-150951429D01*
X153860476Y-151165714D01*
X153908095Y-151451429D01*
X153955714Y-151594286D01*
X154050952Y-151737143D01*
X154193810Y-151808571D01*
X154289048Y-151808571D01*
X154431905Y-151737143D01*
X154479524Y-151665714D01*
X154479524Y-151165714D01*
X154289048Y-151165714D01*
X154908095Y-151808571D02*
X154908095Y-150308571D01*
X155289048Y-150308571D01*
X155384286Y-150380000D01*
X155431905Y-150451429D01*
X155479524Y-150594286D01*
X155479524Y-150808571D01*
X155431905Y-150951429D01*
X155384286Y-151022857D01*
X155289048Y-151094286D01*
X154908095Y-151094286D01*
X155908095Y-151808571D02*
X155908095Y-150308571D01*
X156574761Y-150308571D02*
X156765238Y-150308571D01*
X156860476Y-150380000D01*
X156955714Y-150522857D01*
X157003333Y-150808571D01*
X157003333Y-151308571D01*
X156955714Y-151594286D01*
X156860476Y-151737143D01*
X156765238Y-151808571D01*
X156574761Y-151808571D01*
X156479523Y-151737143D01*
X156384285Y-151594286D01*
X156336666Y-151308571D01*
X156336666Y-150808571D01*
X156384285Y-150522857D01*
X156479523Y-150380000D01*
X156574761Y-150308571D01*
X157384285Y-150451429D02*
X157431904Y-150380000D01*
X157527142Y-150308571D01*
X157765238Y-150308571D01*
X157860476Y-150380000D01*
X157908095Y-150451429D01*
X157955714Y-150594286D01*
X157955714Y-150737143D01*
X157908095Y-150951429D01*
X157336666Y-151808571D01*
X157955714Y-151808571D01*
X158574761Y-150308571D02*
X158670000Y-150308571D01*
X158765238Y-150380000D01*
X158812857Y-150451429D01*
X158860476Y-150594286D01*
X158908095Y-150880000D01*
X158908095Y-151237143D01*
X158860476Y-151522857D01*
X158812857Y-151665714D01*
X158765238Y-151737143D01*
X158670000Y-151808571D01*
X158574761Y-151808571D01*
X158479523Y-151737143D01*
X158431904Y-151665714D01*
X158384285Y-151522857D01*
X158336666Y-151237143D01*
X158336666Y-150880000D01*
X158384285Y-150594286D01*
X158431904Y-150451429D01*
X158479523Y-150380000D01*
X158574761Y-150308571D01*
X154431905Y-147840000D02*
X154336667Y-147768571D01*
X154193810Y-147768571D01*
X154050952Y-147840000D01*
X153955714Y-147982857D01*
X153908095Y-148125714D01*
X153860476Y-148411429D01*
X153860476Y-148625714D01*
X153908095Y-148911429D01*
X153955714Y-149054286D01*
X154050952Y-149197143D01*
X154193810Y-149268571D01*
X154289048Y-149268571D01*
X154431905Y-149197143D01*
X154479524Y-149125714D01*
X154479524Y-148625714D01*
X154289048Y-148625714D01*
X154908095Y-149268571D02*
X154908095Y-147768571D01*
X155289048Y-147768571D01*
X155384286Y-147840000D01*
X155431905Y-147911429D01*
X155479524Y-148054286D01*
X155479524Y-148268571D01*
X155431905Y-148411429D01*
X155384286Y-148482857D01*
X155289048Y-148554286D01*
X154908095Y-148554286D01*
X155908095Y-149268571D02*
X155908095Y-147768571D01*
X156574761Y-147768571D02*
X156765238Y-147768571D01*
X156860476Y-147840000D01*
X156955714Y-147982857D01*
X157003333Y-148268571D01*
X157003333Y-148768571D01*
X156955714Y-149054286D01*
X156860476Y-149197143D01*
X156765238Y-149268571D01*
X156574761Y-149268571D01*
X156479523Y-149197143D01*
X156384285Y-149054286D01*
X156336666Y-148768571D01*
X156336666Y-148268571D01*
X156384285Y-147982857D01*
X156479523Y-147840000D01*
X156574761Y-147768571D01*
X157955714Y-149268571D02*
X157384285Y-149268571D01*
X157669999Y-149268571D02*
X157669999Y-147768571D01*
X157574761Y-147982857D01*
X157479523Y-148125714D01*
X157384285Y-148197143D01*
X158812857Y-147768571D02*
X158622380Y-147768571D01*
X158527142Y-147840000D01*
X158479523Y-147911429D01*
X158384285Y-148125714D01*
X158336666Y-148411429D01*
X158336666Y-148982857D01*
X158384285Y-149125714D01*
X158431904Y-149197143D01*
X158527142Y-149268571D01*
X158717619Y-149268571D01*
X158812857Y-149197143D01*
X158860476Y-149125714D01*
X158908095Y-148982857D01*
X158908095Y-148625714D01*
X158860476Y-148482857D01*
X158812857Y-148411429D01*
X158717619Y-148340000D01*
X158527142Y-148340000D01*
X158431904Y-148411429D01*
X158384285Y-148482857D01*
X158336666Y-148625714D01*
X141383334Y-150380000D02*
X141288096Y-150308571D01*
X141145239Y-150308571D01*
X141002381Y-150380000D01*
X140907143Y-150522857D01*
X140859524Y-150665714D01*
X140811905Y-150951429D01*
X140811905Y-151165714D01*
X140859524Y-151451429D01*
X140907143Y-151594286D01*
X141002381Y-151737143D01*
X141145239Y-151808571D01*
X141240477Y-151808571D01*
X141383334Y-151737143D01*
X141430953Y-151665714D01*
X141430953Y-151165714D01*
X141240477Y-151165714D01*
X141859524Y-151808571D02*
X141859524Y-150308571D01*
X142240477Y-150308571D01*
X142335715Y-150380000D01*
X142383334Y-150451429D01*
X142430953Y-150594286D01*
X142430953Y-150808571D01*
X142383334Y-150951429D01*
X142335715Y-151022857D01*
X142240477Y-151094286D01*
X141859524Y-151094286D01*
X142859524Y-151808571D02*
X142859524Y-150308571D01*
X143526190Y-150308571D02*
X143716667Y-150308571D01*
X143811905Y-150380000D01*
X143907143Y-150522857D01*
X143954762Y-150808571D01*
X143954762Y-151308571D01*
X143907143Y-151594286D01*
X143811905Y-151737143D01*
X143716667Y-151808571D01*
X143526190Y-151808571D01*
X143430952Y-151737143D01*
X143335714Y-151594286D01*
X143288095Y-151308571D01*
X143288095Y-150808571D01*
X143335714Y-150522857D01*
X143430952Y-150380000D01*
X143526190Y-150308571D01*
X144335714Y-150451429D02*
X144383333Y-150380000D01*
X144478571Y-150308571D01*
X144716667Y-150308571D01*
X144811905Y-150380000D01*
X144859524Y-150451429D01*
X144907143Y-150594286D01*
X144907143Y-150737143D01*
X144859524Y-150951429D01*
X144288095Y-151808571D01*
X144907143Y-151808571D01*
X145764286Y-150308571D02*
X145573809Y-150308571D01*
X145478571Y-150380000D01*
X145430952Y-150451429D01*
X145335714Y-150665714D01*
X145288095Y-150951429D01*
X145288095Y-151522857D01*
X145335714Y-151665714D01*
X145383333Y-151737143D01*
X145478571Y-151808571D01*
X145669048Y-151808571D01*
X145764286Y-151737143D01*
X145811905Y-151665714D01*
X145859524Y-151522857D01*
X145859524Y-151165714D01*
X145811905Y-151022857D01*
X145764286Y-150951429D01*
X145669048Y-150880000D01*
X145478571Y-150880000D01*
X145383333Y-150951429D01*
X145335714Y-151022857D01*
X145288095Y-151165714D01*
X141383334Y-147840000D02*
X141288096Y-147768571D01*
X141145239Y-147768571D01*
X141002381Y-147840000D01*
X140907143Y-147982857D01*
X140859524Y-148125714D01*
X140811905Y-148411429D01*
X140811905Y-148625714D01*
X140859524Y-148911429D01*
X140907143Y-149054286D01*
X141002381Y-149197143D01*
X141145239Y-149268571D01*
X141240477Y-149268571D01*
X141383334Y-149197143D01*
X141430953Y-149125714D01*
X141430953Y-148625714D01*
X141240477Y-148625714D01*
X141859524Y-149268571D02*
X141859524Y-147768571D01*
X142240477Y-147768571D01*
X142335715Y-147840000D01*
X142383334Y-147911429D01*
X142430953Y-148054286D01*
X142430953Y-148268571D01*
X142383334Y-148411429D01*
X142335715Y-148482857D01*
X142240477Y-148554286D01*
X141859524Y-148554286D01*
X142859524Y-149268571D02*
X142859524Y-147768571D01*
X143526190Y-147768571D02*
X143716667Y-147768571D01*
X143811905Y-147840000D01*
X143907143Y-147982857D01*
X143954762Y-148268571D01*
X143954762Y-148768571D01*
X143907143Y-149054286D01*
X143811905Y-149197143D01*
X143716667Y-149268571D01*
X143526190Y-149268571D01*
X143430952Y-149197143D01*
X143335714Y-149054286D01*
X143288095Y-148768571D01*
X143288095Y-148268571D01*
X143335714Y-147982857D01*
X143430952Y-147840000D01*
X143526190Y-147768571D01*
X144907143Y-149268571D02*
X144335714Y-149268571D01*
X144621428Y-149268571D02*
X144621428Y-147768571D01*
X144526190Y-147982857D01*
X144430952Y-148125714D01*
X144335714Y-148197143D01*
X145383333Y-149268571D02*
X145573809Y-149268571D01*
X145669048Y-149197143D01*
X145716667Y-149125714D01*
X145811905Y-148911429D01*
X145859524Y-148625714D01*
X145859524Y-148054286D01*
X145811905Y-147911429D01*
X145764286Y-147840000D01*
X145669048Y-147768571D01*
X145478571Y-147768571D01*
X145383333Y-147840000D01*
X145335714Y-147911429D01*
X145288095Y-148054286D01*
X145288095Y-148411429D01*
X145335714Y-148554286D01*
X145383333Y-148625714D01*
X145478571Y-148697143D01*
X145669048Y-148697143D01*
X145764286Y-148625714D01*
X145811905Y-148554286D01*
X145859524Y-148411429D01*
X141383334Y-145300000D02*
X141288096Y-145228571D01*
X141145239Y-145228571D01*
X141002381Y-145300000D01*
X140907143Y-145442857D01*
X140859524Y-145585714D01*
X140811905Y-145871429D01*
X140811905Y-146085714D01*
X140859524Y-146371429D01*
X140907143Y-146514286D01*
X141002381Y-146657143D01*
X141145239Y-146728571D01*
X141240477Y-146728571D01*
X141383334Y-146657143D01*
X141430953Y-146585714D01*
X141430953Y-146085714D01*
X141240477Y-146085714D01*
X141859524Y-146728571D02*
X141859524Y-145228571D01*
X142240477Y-145228571D01*
X142335715Y-145300000D01*
X142383334Y-145371429D01*
X142430953Y-145514286D01*
X142430953Y-145728571D01*
X142383334Y-145871429D01*
X142335715Y-145942857D01*
X142240477Y-146014286D01*
X141859524Y-146014286D01*
X142859524Y-146728571D02*
X142859524Y-145228571D01*
X143526190Y-145228571D02*
X143716667Y-145228571D01*
X143811905Y-145300000D01*
X143907143Y-145442857D01*
X143954762Y-145728571D01*
X143954762Y-146228571D01*
X143907143Y-146514286D01*
X143811905Y-146657143D01*
X143716667Y-146728571D01*
X143526190Y-146728571D01*
X143430952Y-146657143D01*
X143335714Y-146514286D01*
X143288095Y-146228571D01*
X143288095Y-145728571D01*
X143335714Y-145442857D01*
X143430952Y-145300000D01*
X143526190Y-145228571D01*
X144907143Y-146728571D02*
X144335714Y-146728571D01*
X144621428Y-146728571D02*
X144621428Y-145228571D01*
X144526190Y-145442857D01*
X144430952Y-145585714D01*
X144335714Y-145657143D01*
X145240476Y-145228571D02*
X145859524Y-145228571D01*
X145526190Y-145800000D01*
X145669048Y-145800000D01*
X145764286Y-145871429D01*
X145811905Y-145942857D01*
X145859524Y-146085714D01*
X145859524Y-146442857D01*
X145811905Y-146585714D01*
X145764286Y-146657143D01*
X145669048Y-146728571D01*
X145383333Y-146728571D01*
X145288095Y-146657143D01*
X145240476Y-146585714D01*
X142335715Y-142760000D02*
X142240477Y-142688571D01*
X142097620Y-142688571D01*
X141954762Y-142760000D01*
X141859524Y-142902857D01*
X141811905Y-143045714D01*
X141764286Y-143331429D01*
X141764286Y-143545714D01*
X141811905Y-143831429D01*
X141859524Y-143974286D01*
X141954762Y-144117143D01*
X142097620Y-144188571D01*
X142192858Y-144188571D01*
X142335715Y-144117143D01*
X142383334Y-144045714D01*
X142383334Y-143545714D01*
X142192858Y-143545714D01*
X142811905Y-144188571D02*
X142811905Y-142688571D01*
X143192858Y-142688571D01*
X143288096Y-142760000D01*
X143335715Y-142831429D01*
X143383334Y-142974286D01*
X143383334Y-143188571D01*
X143335715Y-143331429D01*
X143288096Y-143402857D01*
X143192858Y-143474286D01*
X142811905Y-143474286D01*
X143811905Y-144188571D02*
X143811905Y-142688571D01*
X144478571Y-142688571D02*
X144669048Y-142688571D01*
X144764286Y-142760000D01*
X144859524Y-142902857D01*
X144907143Y-143188571D01*
X144907143Y-143688571D01*
X144859524Y-143974286D01*
X144764286Y-144117143D01*
X144669048Y-144188571D01*
X144478571Y-144188571D01*
X144383333Y-144117143D01*
X144288095Y-143974286D01*
X144240476Y-143688571D01*
X144240476Y-143188571D01*
X144288095Y-142902857D01*
X144383333Y-142760000D01*
X144478571Y-142688571D01*
X145764286Y-142688571D02*
X145573809Y-142688571D01*
X145478571Y-142760000D01*
X145430952Y-142831429D01*
X145335714Y-143045714D01*
X145288095Y-143331429D01*
X145288095Y-143902857D01*
X145335714Y-144045714D01*
X145383333Y-144117143D01*
X145478571Y-144188571D01*
X145669048Y-144188571D01*
X145764286Y-144117143D01*
X145811905Y-144045714D01*
X145859524Y-143902857D01*
X145859524Y-143545714D01*
X145811905Y-143402857D01*
X145764286Y-143331429D01*
X145669048Y-143260000D01*
X145478571Y-143260000D01*
X145383333Y-143331429D01*
X145335714Y-143402857D01*
X145288095Y-143545714D01*
X142335715Y-140220000D02*
X142240477Y-140148571D01*
X142097620Y-140148571D01*
X141954762Y-140220000D01*
X141859524Y-140362857D01*
X141811905Y-140505714D01*
X141764286Y-140791429D01*
X141764286Y-141005714D01*
X141811905Y-141291429D01*
X141859524Y-141434286D01*
X141954762Y-141577143D01*
X142097620Y-141648571D01*
X142192858Y-141648571D01*
X142335715Y-141577143D01*
X142383334Y-141505714D01*
X142383334Y-141005714D01*
X142192858Y-141005714D01*
X142811905Y-141648571D02*
X142811905Y-140148571D01*
X143192858Y-140148571D01*
X143288096Y-140220000D01*
X143335715Y-140291429D01*
X143383334Y-140434286D01*
X143383334Y-140648571D01*
X143335715Y-140791429D01*
X143288096Y-140862857D01*
X143192858Y-140934286D01*
X142811905Y-140934286D01*
X143811905Y-141648571D02*
X143811905Y-140148571D01*
X144478571Y-140148571D02*
X144669048Y-140148571D01*
X144764286Y-140220000D01*
X144859524Y-140362857D01*
X144907143Y-140648571D01*
X144907143Y-141148571D01*
X144859524Y-141434286D01*
X144764286Y-141577143D01*
X144669048Y-141648571D01*
X144478571Y-141648571D01*
X144383333Y-141577143D01*
X144288095Y-141434286D01*
X144240476Y-141148571D01*
X144240476Y-140648571D01*
X144288095Y-140362857D01*
X144383333Y-140220000D01*
X144478571Y-140148571D01*
X145811905Y-140148571D02*
X145335714Y-140148571D01*
X145288095Y-140862857D01*
X145335714Y-140791429D01*
X145430952Y-140720000D01*
X145669048Y-140720000D01*
X145764286Y-140791429D01*
X145811905Y-140862857D01*
X145859524Y-141005714D01*
X145859524Y-141362857D01*
X145811905Y-141505714D01*
X145764286Y-141577143D01*
X145669048Y-141648571D01*
X145430952Y-141648571D01*
X145335714Y-141577143D01*
X145288095Y-141505714D01*
X142335715Y-137680000D02*
X142240477Y-137608571D01*
X142097620Y-137608571D01*
X141954762Y-137680000D01*
X141859524Y-137822857D01*
X141811905Y-137965714D01*
X141764286Y-138251429D01*
X141764286Y-138465714D01*
X141811905Y-138751429D01*
X141859524Y-138894286D01*
X141954762Y-139037143D01*
X142097620Y-139108571D01*
X142192858Y-139108571D01*
X142335715Y-139037143D01*
X142383334Y-138965714D01*
X142383334Y-138465714D01*
X142192858Y-138465714D01*
X142811905Y-139108571D02*
X142811905Y-137608571D01*
X143192858Y-137608571D01*
X143288096Y-137680000D01*
X143335715Y-137751429D01*
X143383334Y-137894286D01*
X143383334Y-138108571D01*
X143335715Y-138251429D01*
X143288096Y-138322857D01*
X143192858Y-138394286D01*
X142811905Y-138394286D01*
X143811905Y-139108571D02*
X143811905Y-137608571D01*
X144478571Y-137608571D02*
X144669048Y-137608571D01*
X144764286Y-137680000D01*
X144859524Y-137822857D01*
X144907143Y-138108571D01*
X144907143Y-138608571D01*
X144859524Y-138894286D01*
X144764286Y-139037143D01*
X144669048Y-139108571D01*
X144478571Y-139108571D01*
X144383333Y-139037143D01*
X144288095Y-138894286D01*
X144240476Y-138608571D01*
X144240476Y-138108571D01*
X144288095Y-137822857D01*
X144383333Y-137680000D01*
X144478571Y-137608571D01*
X145526190Y-137608571D02*
X145621429Y-137608571D01*
X145716667Y-137680000D01*
X145764286Y-137751429D01*
X145811905Y-137894286D01*
X145859524Y-138180000D01*
X145859524Y-138537143D01*
X145811905Y-138822857D01*
X145764286Y-138965714D01*
X145716667Y-139037143D01*
X145621429Y-139108571D01*
X145526190Y-139108571D01*
X145430952Y-139037143D01*
X145383333Y-138965714D01*
X145335714Y-138822857D01*
X145288095Y-138537143D01*
X145288095Y-138180000D01*
X145335714Y-137894286D01*
X145383333Y-137751429D01*
X145430952Y-137680000D01*
X145526190Y-137608571D01*
X141383334Y-132600000D02*
X141288096Y-132528571D01*
X141145239Y-132528571D01*
X141002381Y-132600000D01*
X140907143Y-132742857D01*
X140859524Y-132885714D01*
X140811905Y-133171429D01*
X140811905Y-133385714D01*
X140859524Y-133671429D01*
X140907143Y-133814286D01*
X141002381Y-133957143D01*
X141145239Y-134028571D01*
X141240477Y-134028571D01*
X141383334Y-133957143D01*
X141430953Y-133885714D01*
X141430953Y-133385714D01*
X141240477Y-133385714D01*
X141859524Y-134028571D02*
X141859524Y-132528571D01*
X142240477Y-132528571D01*
X142335715Y-132600000D01*
X142383334Y-132671429D01*
X142430953Y-132814286D01*
X142430953Y-133028571D01*
X142383334Y-133171429D01*
X142335715Y-133242857D01*
X142240477Y-133314286D01*
X141859524Y-133314286D01*
X142859524Y-134028571D02*
X142859524Y-132528571D01*
X143526190Y-132528571D02*
X143716667Y-132528571D01*
X143811905Y-132600000D01*
X143907143Y-132742857D01*
X143954762Y-133028571D01*
X143954762Y-133528571D01*
X143907143Y-133814286D01*
X143811905Y-133957143D01*
X143716667Y-134028571D01*
X143526190Y-134028571D01*
X143430952Y-133957143D01*
X143335714Y-133814286D01*
X143288095Y-133528571D01*
X143288095Y-133028571D01*
X143335714Y-132742857D01*
X143430952Y-132600000D01*
X143526190Y-132528571D01*
X144907143Y-134028571D02*
X144335714Y-134028571D01*
X144621428Y-134028571D02*
X144621428Y-132528571D01*
X144526190Y-132742857D01*
X144430952Y-132885714D01*
X144335714Y-132957143D01*
X145859524Y-134028571D02*
X145288095Y-134028571D01*
X145573809Y-134028571D02*
X145573809Y-132528571D01*
X145478571Y-132742857D01*
X145383333Y-132885714D01*
X145288095Y-132957143D01*
X142335715Y-130060000D02*
X142240477Y-129988571D01*
X142097620Y-129988571D01*
X141954762Y-130060000D01*
X141859524Y-130202857D01*
X141811905Y-130345714D01*
X141764286Y-130631429D01*
X141764286Y-130845714D01*
X141811905Y-131131429D01*
X141859524Y-131274286D01*
X141954762Y-131417143D01*
X142097620Y-131488571D01*
X142192858Y-131488571D01*
X142335715Y-131417143D01*
X142383334Y-131345714D01*
X142383334Y-130845714D01*
X142192858Y-130845714D01*
X142811905Y-131488571D02*
X142811905Y-129988571D01*
X143192858Y-129988571D01*
X143288096Y-130060000D01*
X143335715Y-130131429D01*
X143383334Y-130274286D01*
X143383334Y-130488571D01*
X143335715Y-130631429D01*
X143288096Y-130702857D01*
X143192858Y-130774286D01*
X142811905Y-130774286D01*
X143811905Y-131488571D02*
X143811905Y-129988571D01*
X144478571Y-129988571D02*
X144669048Y-129988571D01*
X144764286Y-130060000D01*
X144859524Y-130202857D01*
X144907143Y-130488571D01*
X144907143Y-130988571D01*
X144859524Y-131274286D01*
X144764286Y-131417143D01*
X144669048Y-131488571D01*
X144478571Y-131488571D01*
X144383333Y-131417143D01*
X144288095Y-131274286D01*
X144240476Y-130988571D01*
X144240476Y-130488571D01*
X144288095Y-130202857D01*
X144383333Y-130060000D01*
X144478571Y-129988571D01*
X145383333Y-131488571D02*
X145573809Y-131488571D01*
X145669048Y-131417143D01*
X145716667Y-131345714D01*
X145811905Y-131131429D01*
X145859524Y-130845714D01*
X145859524Y-130274286D01*
X145811905Y-130131429D01*
X145764286Y-130060000D01*
X145669048Y-129988571D01*
X145478571Y-129988571D01*
X145383333Y-130060000D01*
X145335714Y-130131429D01*
X145288095Y-130274286D01*
X145288095Y-130631429D01*
X145335714Y-130774286D01*
X145383333Y-130845714D01*
X145478571Y-130917143D01*
X145669048Y-130917143D01*
X145764286Y-130845714D01*
X145811905Y-130774286D01*
X145859524Y-130631429D01*
X141383334Y-127520000D02*
X141288096Y-127448571D01*
X141145239Y-127448571D01*
X141002381Y-127520000D01*
X140907143Y-127662857D01*
X140859524Y-127805714D01*
X140811905Y-128091429D01*
X140811905Y-128305714D01*
X140859524Y-128591429D01*
X140907143Y-128734286D01*
X141002381Y-128877143D01*
X141145239Y-128948571D01*
X141240477Y-128948571D01*
X141383334Y-128877143D01*
X141430953Y-128805714D01*
X141430953Y-128305714D01*
X141240477Y-128305714D01*
X141859524Y-128948571D02*
X141859524Y-127448571D01*
X142240477Y-127448571D01*
X142335715Y-127520000D01*
X142383334Y-127591429D01*
X142430953Y-127734286D01*
X142430953Y-127948571D01*
X142383334Y-128091429D01*
X142335715Y-128162857D01*
X142240477Y-128234286D01*
X141859524Y-128234286D01*
X142859524Y-128948571D02*
X142859524Y-127448571D01*
X143526190Y-127448571D02*
X143716667Y-127448571D01*
X143811905Y-127520000D01*
X143907143Y-127662857D01*
X143954762Y-127948571D01*
X143954762Y-128448571D01*
X143907143Y-128734286D01*
X143811905Y-128877143D01*
X143716667Y-128948571D01*
X143526190Y-128948571D01*
X143430952Y-128877143D01*
X143335714Y-128734286D01*
X143288095Y-128448571D01*
X143288095Y-127948571D01*
X143335714Y-127662857D01*
X143430952Y-127520000D01*
X143526190Y-127448571D01*
X144907143Y-128948571D02*
X144335714Y-128948571D01*
X144621428Y-128948571D02*
X144621428Y-127448571D01*
X144526190Y-127662857D01*
X144430952Y-127805714D01*
X144335714Y-127877143D01*
X145526190Y-127448571D02*
X145621429Y-127448571D01*
X145716667Y-127520000D01*
X145764286Y-127591429D01*
X145811905Y-127734286D01*
X145859524Y-128020000D01*
X145859524Y-128377143D01*
X145811905Y-128662857D01*
X145764286Y-128805714D01*
X145716667Y-128877143D01*
X145621429Y-128948571D01*
X145526190Y-128948571D01*
X145430952Y-128877143D01*
X145383333Y-128805714D01*
X145335714Y-128662857D01*
X145288095Y-128377143D01*
X145288095Y-128020000D01*
X145335714Y-127734286D01*
X145383333Y-127591429D01*
X145430952Y-127520000D01*
X145526190Y-127448571D01*
X141383334Y-122440000D02*
X141288096Y-122368571D01*
X141145239Y-122368571D01*
X141002381Y-122440000D01*
X140907143Y-122582857D01*
X140859524Y-122725714D01*
X140811905Y-123011429D01*
X140811905Y-123225714D01*
X140859524Y-123511429D01*
X140907143Y-123654286D01*
X141002381Y-123797143D01*
X141145239Y-123868571D01*
X141240477Y-123868571D01*
X141383334Y-123797143D01*
X141430953Y-123725714D01*
X141430953Y-123225714D01*
X141240477Y-123225714D01*
X141859524Y-123868571D02*
X141859524Y-122368571D01*
X142240477Y-122368571D01*
X142335715Y-122440000D01*
X142383334Y-122511429D01*
X142430953Y-122654286D01*
X142430953Y-122868571D01*
X142383334Y-123011429D01*
X142335715Y-123082857D01*
X142240477Y-123154286D01*
X141859524Y-123154286D01*
X142859524Y-123868571D02*
X142859524Y-122368571D01*
X143526190Y-122368571D02*
X143716667Y-122368571D01*
X143811905Y-122440000D01*
X143907143Y-122582857D01*
X143954762Y-122868571D01*
X143954762Y-123368571D01*
X143907143Y-123654286D01*
X143811905Y-123797143D01*
X143716667Y-123868571D01*
X143526190Y-123868571D01*
X143430952Y-123797143D01*
X143335714Y-123654286D01*
X143288095Y-123368571D01*
X143288095Y-122868571D01*
X143335714Y-122582857D01*
X143430952Y-122440000D01*
X143526190Y-122368571D01*
X144335714Y-122511429D02*
X144383333Y-122440000D01*
X144478571Y-122368571D01*
X144716667Y-122368571D01*
X144811905Y-122440000D01*
X144859524Y-122511429D01*
X144907143Y-122654286D01*
X144907143Y-122797143D01*
X144859524Y-123011429D01*
X144288095Y-123868571D01*
X144907143Y-123868571D01*
X145288095Y-122511429D02*
X145335714Y-122440000D01*
X145430952Y-122368571D01*
X145669048Y-122368571D01*
X145764286Y-122440000D01*
X145811905Y-122511429D01*
X145859524Y-122654286D01*
X145859524Y-122797143D01*
X145811905Y-123011429D01*
X145240476Y-123868571D01*
X145859524Y-123868571D01*
X141383334Y-119900000D02*
X141288096Y-119828571D01*
X141145239Y-119828571D01*
X141002381Y-119900000D01*
X140907143Y-120042857D01*
X140859524Y-120185714D01*
X140811905Y-120471429D01*
X140811905Y-120685714D01*
X140859524Y-120971429D01*
X140907143Y-121114286D01*
X141002381Y-121257143D01*
X141145239Y-121328571D01*
X141240477Y-121328571D01*
X141383334Y-121257143D01*
X141430953Y-121185714D01*
X141430953Y-120685714D01*
X141240477Y-120685714D01*
X141859524Y-121328571D02*
X141859524Y-119828571D01*
X142240477Y-119828571D01*
X142335715Y-119900000D01*
X142383334Y-119971429D01*
X142430953Y-120114286D01*
X142430953Y-120328571D01*
X142383334Y-120471429D01*
X142335715Y-120542857D01*
X142240477Y-120614286D01*
X141859524Y-120614286D01*
X142859524Y-121328571D02*
X142859524Y-119828571D01*
X143526190Y-119828571D02*
X143716667Y-119828571D01*
X143811905Y-119900000D01*
X143907143Y-120042857D01*
X143954762Y-120328571D01*
X143954762Y-120828571D01*
X143907143Y-121114286D01*
X143811905Y-121257143D01*
X143716667Y-121328571D01*
X143526190Y-121328571D01*
X143430952Y-121257143D01*
X143335714Y-121114286D01*
X143288095Y-120828571D01*
X143288095Y-120328571D01*
X143335714Y-120042857D01*
X143430952Y-119900000D01*
X143526190Y-119828571D01*
X144335714Y-119971429D02*
X144383333Y-119900000D01*
X144478571Y-119828571D01*
X144716667Y-119828571D01*
X144811905Y-119900000D01*
X144859524Y-119971429D01*
X144907143Y-120114286D01*
X144907143Y-120257143D01*
X144859524Y-120471429D01*
X144288095Y-121328571D01*
X144907143Y-121328571D01*
X145240476Y-119828571D02*
X145907143Y-119828571D01*
X145478571Y-121328571D01*
X141383334Y-117360000D02*
X141288096Y-117288571D01*
X141145239Y-117288571D01*
X141002381Y-117360000D01*
X140907143Y-117502857D01*
X140859524Y-117645714D01*
X140811905Y-117931429D01*
X140811905Y-118145714D01*
X140859524Y-118431429D01*
X140907143Y-118574286D01*
X141002381Y-118717143D01*
X141145239Y-118788571D01*
X141240477Y-118788571D01*
X141383334Y-118717143D01*
X141430953Y-118645714D01*
X141430953Y-118145714D01*
X141240477Y-118145714D01*
X141859524Y-118788571D02*
X141859524Y-117288571D01*
X142240477Y-117288571D01*
X142335715Y-117360000D01*
X142383334Y-117431429D01*
X142430953Y-117574286D01*
X142430953Y-117788571D01*
X142383334Y-117931429D01*
X142335715Y-118002857D01*
X142240477Y-118074286D01*
X141859524Y-118074286D01*
X142859524Y-118788571D02*
X142859524Y-117288571D01*
X143526190Y-117288571D02*
X143716667Y-117288571D01*
X143811905Y-117360000D01*
X143907143Y-117502857D01*
X143954762Y-117788571D01*
X143954762Y-118288571D01*
X143907143Y-118574286D01*
X143811905Y-118717143D01*
X143716667Y-118788571D01*
X143526190Y-118788571D01*
X143430952Y-118717143D01*
X143335714Y-118574286D01*
X143288095Y-118288571D01*
X143288095Y-117788571D01*
X143335714Y-117502857D01*
X143430952Y-117360000D01*
X143526190Y-117288571D01*
X144907143Y-118788571D02*
X144335714Y-118788571D01*
X144621428Y-118788571D02*
X144621428Y-117288571D01*
X144526190Y-117502857D01*
X144430952Y-117645714D01*
X144335714Y-117717143D01*
X145240476Y-117288571D02*
X145907143Y-117288571D01*
X145478571Y-118788571D01*
X142335715Y-112280000D02*
X142240477Y-112208571D01*
X142097620Y-112208571D01*
X141954762Y-112280000D01*
X141859524Y-112422857D01*
X141811905Y-112565714D01*
X141764286Y-112851429D01*
X141764286Y-113065714D01*
X141811905Y-113351429D01*
X141859524Y-113494286D01*
X141954762Y-113637143D01*
X142097620Y-113708571D01*
X142192858Y-113708571D01*
X142335715Y-113637143D01*
X142383334Y-113565714D01*
X142383334Y-113065714D01*
X142192858Y-113065714D01*
X142811905Y-113708571D02*
X142811905Y-112208571D01*
X143192858Y-112208571D01*
X143288096Y-112280000D01*
X143335715Y-112351429D01*
X143383334Y-112494286D01*
X143383334Y-112708571D01*
X143335715Y-112851429D01*
X143288096Y-112922857D01*
X143192858Y-112994286D01*
X142811905Y-112994286D01*
X143811905Y-113708571D02*
X143811905Y-112208571D01*
X144478571Y-112208571D02*
X144669048Y-112208571D01*
X144764286Y-112280000D01*
X144859524Y-112422857D01*
X144907143Y-112708571D01*
X144907143Y-113208571D01*
X144859524Y-113494286D01*
X144764286Y-113637143D01*
X144669048Y-113708571D01*
X144478571Y-113708571D01*
X144383333Y-113637143D01*
X144288095Y-113494286D01*
X144240476Y-113208571D01*
X144240476Y-112708571D01*
X144288095Y-112422857D01*
X144383333Y-112280000D01*
X144478571Y-112208571D01*
X145764286Y-112708571D02*
X145764286Y-113708571D01*
X145526190Y-112137143D02*
X145288095Y-113208571D01*
X145907143Y-113208571D01*
X142335715Y-109740000D02*
X142240477Y-109668571D01*
X142097620Y-109668571D01*
X141954762Y-109740000D01*
X141859524Y-109882857D01*
X141811905Y-110025714D01*
X141764286Y-110311429D01*
X141764286Y-110525714D01*
X141811905Y-110811429D01*
X141859524Y-110954286D01*
X141954762Y-111097143D01*
X142097620Y-111168571D01*
X142192858Y-111168571D01*
X142335715Y-111097143D01*
X142383334Y-111025714D01*
X142383334Y-110525714D01*
X142192858Y-110525714D01*
X142811905Y-111168571D02*
X142811905Y-109668571D01*
X143192858Y-109668571D01*
X143288096Y-109740000D01*
X143335715Y-109811429D01*
X143383334Y-109954286D01*
X143383334Y-110168571D01*
X143335715Y-110311429D01*
X143288096Y-110382857D01*
X143192858Y-110454286D01*
X142811905Y-110454286D01*
X143811905Y-111168571D02*
X143811905Y-109668571D01*
X144478571Y-109668571D02*
X144669048Y-109668571D01*
X144764286Y-109740000D01*
X144859524Y-109882857D01*
X144907143Y-110168571D01*
X144907143Y-110668571D01*
X144859524Y-110954286D01*
X144764286Y-111097143D01*
X144669048Y-111168571D01*
X144478571Y-111168571D01*
X144383333Y-111097143D01*
X144288095Y-110954286D01*
X144240476Y-110668571D01*
X144240476Y-110168571D01*
X144288095Y-109882857D01*
X144383333Y-109740000D01*
X144478571Y-109668571D01*
X145240476Y-109668571D02*
X145859524Y-109668571D01*
X145526190Y-110240000D01*
X145669048Y-110240000D01*
X145764286Y-110311429D01*
X145811905Y-110382857D01*
X145859524Y-110525714D01*
X145859524Y-110882857D01*
X145811905Y-111025714D01*
X145764286Y-111097143D01*
X145669048Y-111168571D01*
X145383333Y-111168571D01*
X145288095Y-111097143D01*
X145240476Y-111025714D01*
X142335715Y-107200000D02*
X142240477Y-107128571D01*
X142097620Y-107128571D01*
X141954762Y-107200000D01*
X141859524Y-107342857D01*
X141811905Y-107485714D01*
X141764286Y-107771429D01*
X141764286Y-107985714D01*
X141811905Y-108271429D01*
X141859524Y-108414286D01*
X141954762Y-108557143D01*
X142097620Y-108628571D01*
X142192858Y-108628571D01*
X142335715Y-108557143D01*
X142383334Y-108485714D01*
X142383334Y-107985714D01*
X142192858Y-107985714D01*
X142811905Y-108628571D02*
X142811905Y-107128571D01*
X143192858Y-107128571D01*
X143288096Y-107200000D01*
X143335715Y-107271429D01*
X143383334Y-107414286D01*
X143383334Y-107628571D01*
X143335715Y-107771429D01*
X143288096Y-107842857D01*
X143192858Y-107914286D01*
X142811905Y-107914286D01*
X143811905Y-108628571D02*
X143811905Y-107128571D01*
X144478571Y-107128571D02*
X144669048Y-107128571D01*
X144764286Y-107200000D01*
X144859524Y-107342857D01*
X144907143Y-107628571D01*
X144907143Y-108128571D01*
X144859524Y-108414286D01*
X144764286Y-108557143D01*
X144669048Y-108628571D01*
X144478571Y-108628571D01*
X144383333Y-108557143D01*
X144288095Y-108414286D01*
X144240476Y-108128571D01*
X144240476Y-107628571D01*
X144288095Y-107342857D01*
X144383333Y-107200000D01*
X144478571Y-107128571D01*
X145288095Y-107271429D02*
X145335714Y-107200000D01*
X145430952Y-107128571D01*
X145669048Y-107128571D01*
X145764286Y-107200000D01*
X145811905Y-107271429D01*
X145859524Y-107414286D01*
X145859524Y-107557143D01*
X145811905Y-107771429D01*
X145240476Y-108628571D01*
X145859524Y-108628571D01*
D12*
X142621428Y-114820000D02*
X142478571Y-114748571D01*
X142264285Y-114748571D01*
X142050000Y-114820000D01*
X141907142Y-114962857D01*
X141835714Y-115105714D01*
X141764285Y-115391429D01*
X141764285Y-115605714D01*
X141835714Y-115891429D01*
X141907142Y-116034286D01*
X142050000Y-116177143D01*
X142264285Y-116248571D01*
X142407142Y-116248571D01*
X142621428Y-116177143D01*
X142692857Y-116105714D01*
X142692857Y-115605714D01*
X142407142Y-115605714D01*
X143335714Y-116248571D02*
X143335714Y-114748571D01*
X144192857Y-116248571D01*
X144192857Y-114748571D01*
X144907143Y-116248571D02*
X144907143Y-114748571D01*
X145264286Y-114748571D01*
X145478571Y-114820000D01*
X145621429Y-114962857D01*
X145692857Y-115105714D01*
X145764286Y-115391429D01*
X145764286Y-115605714D01*
X145692857Y-115891429D01*
X145621429Y-116034286D01*
X145478571Y-116177143D01*
X145264286Y-116248571D01*
X144907143Y-116248571D01*
X142621428Y-135140000D02*
X142478571Y-135068571D01*
X142264285Y-135068571D01*
X142050000Y-135140000D01*
X141907142Y-135282857D01*
X141835714Y-135425714D01*
X141764285Y-135711429D01*
X141764285Y-135925714D01*
X141835714Y-136211429D01*
X141907142Y-136354286D01*
X142050000Y-136497143D01*
X142264285Y-136568571D01*
X142407142Y-136568571D01*
X142621428Y-136497143D01*
X142692857Y-136425714D01*
X142692857Y-135925714D01*
X142407142Y-135925714D01*
X143335714Y-136568571D02*
X143335714Y-135068571D01*
X144192857Y-136568571D01*
X144192857Y-135068571D01*
X144907143Y-136568571D02*
X144907143Y-135068571D01*
X145264286Y-135068571D01*
X145478571Y-135140000D01*
X145621429Y-135282857D01*
X145692857Y-135425714D01*
X145764286Y-135711429D01*
X145764286Y-135925714D01*
X145692857Y-136211429D01*
X145621429Y-136354286D01*
X145478571Y-136497143D01*
X145264286Y-136568571D01*
X144907143Y-136568571D01*
X142621428Y-152920000D02*
X142478571Y-152848571D01*
X142264285Y-152848571D01*
X142050000Y-152920000D01*
X141907142Y-153062857D01*
X141835714Y-153205714D01*
X141764285Y-153491429D01*
X141764285Y-153705714D01*
X141835714Y-153991429D01*
X141907142Y-154134286D01*
X142050000Y-154277143D01*
X142264285Y-154348571D01*
X142407142Y-154348571D01*
X142621428Y-154277143D01*
X142692857Y-154205714D01*
X142692857Y-153705714D01*
X142407142Y-153705714D01*
X143335714Y-154348571D02*
X143335714Y-152848571D01*
X144192857Y-154348571D01*
X144192857Y-152848571D01*
X144907143Y-154348571D02*
X144907143Y-152848571D01*
X145264286Y-152848571D01*
X145478571Y-152920000D01*
X145621429Y-153062857D01*
X145692857Y-153205714D01*
X145764286Y-153491429D01*
X145764286Y-153705714D01*
X145692857Y-153991429D01*
X145621429Y-154134286D01*
X145478571Y-154277143D01*
X145264286Y-154348571D01*
X144907143Y-154348571D01*
X154812857Y-140220000D02*
X154670000Y-140148571D01*
X154455714Y-140148571D01*
X154241429Y-140220000D01*
X154098571Y-140362857D01*
X154027143Y-140505714D01*
X153955714Y-140791429D01*
X153955714Y-141005714D01*
X154027143Y-141291429D01*
X154098571Y-141434286D01*
X154241429Y-141577143D01*
X154455714Y-141648571D01*
X154598571Y-141648571D01*
X154812857Y-141577143D01*
X154884286Y-141505714D01*
X154884286Y-141005714D01*
X154598571Y-141005714D01*
X155527143Y-141648571D02*
X155527143Y-140148571D01*
X156384286Y-141648571D01*
X156384286Y-140148571D01*
X157098572Y-141648571D02*
X157098572Y-140148571D01*
X157455715Y-140148571D01*
X157670000Y-140220000D01*
X157812858Y-140362857D01*
X157884286Y-140505714D01*
X157955715Y-140791429D01*
X157955715Y-141005714D01*
X157884286Y-141291429D01*
X157812858Y-141434286D01*
X157670000Y-141577143D01*
X157455715Y-141648571D01*
X157098572Y-141648571D01*
X154812857Y-145300000D02*
X154670000Y-145228571D01*
X154455714Y-145228571D01*
X154241429Y-145300000D01*
X154098571Y-145442857D01*
X154027143Y-145585714D01*
X153955714Y-145871429D01*
X153955714Y-146085714D01*
X154027143Y-146371429D01*
X154098571Y-146514286D01*
X154241429Y-146657143D01*
X154455714Y-146728571D01*
X154598571Y-146728571D01*
X154812857Y-146657143D01*
X154884286Y-146585714D01*
X154884286Y-146085714D01*
X154598571Y-146085714D01*
X155527143Y-146728571D02*
X155527143Y-145228571D01*
X156384286Y-146728571D01*
X156384286Y-145228571D01*
X157098572Y-146728571D02*
X157098572Y-145228571D01*
X157455715Y-145228571D01*
X157670000Y-145300000D01*
X157812858Y-145442857D01*
X157884286Y-145585714D01*
X157955715Y-145871429D01*
X157955715Y-146085714D01*
X157884286Y-146371429D01*
X157812858Y-146514286D01*
X157670000Y-146657143D01*
X157455715Y-146728571D01*
X157098572Y-146728571D01*
X154812857Y-127520000D02*
X154670000Y-127448571D01*
X154455714Y-127448571D01*
X154241429Y-127520000D01*
X154098571Y-127662857D01*
X154027143Y-127805714D01*
X153955714Y-128091429D01*
X153955714Y-128305714D01*
X154027143Y-128591429D01*
X154098571Y-128734286D01*
X154241429Y-128877143D01*
X154455714Y-128948571D01*
X154598571Y-128948571D01*
X154812857Y-128877143D01*
X154884286Y-128805714D01*
X154884286Y-128305714D01*
X154598571Y-128305714D01*
X155527143Y-128948571D02*
X155527143Y-127448571D01*
X156384286Y-128948571D01*
X156384286Y-127448571D01*
X157098572Y-128948571D02*
X157098572Y-127448571D01*
X157455715Y-127448571D01*
X157670000Y-127520000D01*
X157812858Y-127662857D01*
X157884286Y-127805714D01*
X157955715Y-128091429D01*
X157955715Y-128305714D01*
X157884286Y-128591429D01*
X157812858Y-128734286D01*
X157670000Y-128877143D01*
X157455715Y-128948571D01*
X157098572Y-128948571D01*
X154812857Y-119900000D02*
X154670000Y-119828571D01*
X154455714Y-119828571D01*
X154241429Y-119900000D01*
X154098571Y-120042857D01*
X154027143Y-120185714D01*
X153955714Y-120471429D01*
X153955714Y-120685714D01*
X154027143Y-120971429D01*
X154098571Y-121114286D01*
X154241429Y-121257143D01*
X154455714Y-121328571D01*
X154598571Y-121328571D01*
X154812857Y-121257143D01*
X154884286Y-121185714D01*
X154884286Y-120685714D01*
X154598571Y-120685714D01*
X155527143Y-121328571D02*
X155527143Y-119828571D01*
X156384286Y-121328571D01*
X156384286Y-119828571D01*
X157098572Y-121328571D02*
X157098572Y-119828571D01*
X157455715Y-119828571D01*
X157670000Y-119900000D01*
X157812858Y-120042857D01*
X157884286Y-120185714D01*
X157955715Y-120471429D01*
X157955715Y-120685714D01*
X157884286Y-120971429D01*
X157812858Y-121114286D01*
X157670000Y-121257143D01*
X157455715Y-121328571D01*
X157098572Y-121328571D01*
X154812857Y-109740000D02*
X154670000Y-109668571D01*
X154455714Y-109668571D01*
X154241429Y-109740000D01*
X154098571Y-109882857D01*
X154027143Y-110025714D01*
X153955714Y-110311429D01*
X153955714Y-110525714D01*
X154027143Y-110811429D01*
X154098571Y-110954286D01*
X154241429Y-111097143D01*
X154455714Y-111168571D01*
X154598571Y-111168571D01*
X154812857Y-111097143D01*
X154884286Y-111025714D01*
X154884286Y-110525714D01*
X154598571Y-110525714D01*
X155527143Y-111168571D02*
X155527143Y-109668571D01*
X156384286Y-111168571D01*
X156384286Y-109668571D01*
X157098572Y-111168571D02*
X157098572Y-109668571D01*
X157455715Y-109668571D01*
X157670000Y-109740000D01*
X157812858Y-109882857D01*
X157884286Y-110025714D01*
X157955715Y-110311429D01*
X157955715Y-110525714D01*
X157884286Y-110811429D01*
X157812858Y-110954286D01*
X157670000Y-111097143D01*
X157455715Y-111168571D01*
X157098572Y-111168571D01*
X142121430Y-124908571D02*
X143050001Y-124908571D01*
X142550001Y-125480000D01*
X142764287Y-125480000D01*
X142907144Y-125551429D01*
X142978573Y-125622857D01*
X143050001Y-125765714D01*
X143050001Y-126122857D01*
X142978573Y-126265714D01*
X142907144Y-126337143D01*
X142764287Y-126408571D01*
X142335715Y-126408571D01*
X142192858Y-126337143D01*
X142121430Y-126265714D01*
X143478572Y-124908571D02*
X143978572Y-126408571D01*
X144478572Y-124908571D01*
X144835715Y-124908571D02*
X145764286Y-124908571D01*
X145264286Y-125480000D01*
X145478572Y-125480000D01*
X145621429Y-125551429D01*
X145692858Y-125622857D01*
X145764286Y-125765714D01*
X145764286Y-126122857D01*
X145692858Y-126265714D01*
X145621429Y-126337143D01*
X145478572Y-126408571D01*
X145050000Y-126408571D01*
X144907143Y-126337143D01*
X144835715Y-126265714D01*
X142121430Y-104588571D02*
X143050001Y-104588571D01*
X142550001Y-105160000D01*
X142764287Y-105160000D01*
X142907144Y-105231429D01*
X142978573Y-105302857D01*
X143050001Y-105445714D01*
X143050001Y-105802857D01*
X142978573Y-105945714D01*
X142907144Y-106017143D01*
X142764287Y-106088571D01*
X142335715Y-106088571D01*
X142192858Y-106017143D01*
X142121430Y-105945714D01*
X143478572Y-104588571D02*
X143978572Y-106088571D01*
X144478572Y-104588571D01*
X144835715Y-104588571D02*
X145764286Y-104588571D01*
X145264286Y-105160000D01*
X145478572Y-105160000D01*
X145621429Y-105231429D01*
X145692858Y-105302857D01*
X145764286Y-105445714D01*
X145764286Y-105802857D01*
X145692858Y-105945714D01*
X145621429Y-106017143D01*
X145478572Y-106088571D01*
X145050000Y-106088571D01*
X144907143Y-106017143D01*
X144835715Y-105945714D01*
X154741429Y-107128571D02*
X154027143Y-107128571D01*
X153955714Y-107842857D01*
X154027143Y-107771429D01*
X154170000Y-107700000D01*
X154527143Y-107700000D01*
X154670000Y-107771429D01*
X154741429Y-107842857D01*
X154812857Y-107985714D01*
X154812857Y-108342857D01*
X154741429Y-108485714D01*
X154670000Y-108557143D01*
X154527143Y-108628571D01*
X154170000Y-108628571D01*
X154027143Y-108557143D01*
X153955714Y-108485714D01*
X155241428Y-107128571D02*
X155741428Y-108628571D01*
X156241428Y-107128571D01*
X154741429Y-104588571D02*
X154027143Y-104588571D01*
X153955714Y-105302857D01*
X154027143Y-105231429D01*
X154170000Y-105160000D01*
X154527143Y-105160000D01*
X154670000Y-105231429D01*
X154741429Y-105302857D01*
X154812857Y-105445714D01*
X154812857Y-105802857D01*
X154741429Y-105945714D01*
X154670000Y-106017143D01*
X154527143Y-106088571D01*
X154170000Y-106088571D01*
X154027143Y-106017143D01*
X153955714Y-105945714D01*
X155241428Y-104588571D02*
X155741428Y-106088571D01*
X156241428Y-104588571D01*
D14*
X149860000Y-104080000D02*
X149860000Y-106680000D01*
X149860000Y-106680000D02*
X147260000Y-106680000D01*
X147260000Y-105410000D02*
X147260000Y-104080000D01*
X147260000Y-104080000D02*
X148590000Y-104080000D01*
M02*
