G04 #@! TF.FileFunction,Profile,NP*
%FSLAX46Y46*%
G04 Gerber Fmt 4.6, Leading zero omitted, Abs format (unit mm)*
G04 Created by KiCad (PCBNEW 4.0.3-stable) date 04/19/17 22:09:26*
%MOMM*%
%LPD*%
G01*
G04 APERTURE LIST*
%ADD10C,0.100000*%
G04 APERTURE END LIST*
D10*
X141662644Y-89923554D02*
X141662644Y-89923554D01*
X140882707Y-90080241D02*
X141662644Y-89923554D01*
X140247145Y-90508054D02*
X140882707Y-90080241D01*
X139819333Y-91143616D02*
X140247145Y-90508054D01*
X139662645Y-91923553D02*
X139819333Y-91143616D01*
X139662645Y-154886263D02*
X139662645Y-91923553D01*
X139793933Y-155707601D02*
X139637245Y-154927663D01*
X140221745Y-156343163D02*
X139793933Y-155707601D01*
X140857307Y-156770974D02*
X140221745Y-156343163D01*
X141637244Y-156927662D02*
X140857307Y-156770974D01*
X157906446Y-156927662D02*
X141586444Y-156927662D01*
X158711783Y-156770974D02*
X157931846Y-156927662D01*
X159321945Y-156368563D02*
X158686383Y-156796374D01*
X159800558Y-155733001D02*
X159372745Y-156368563D01*
X159982645Y-154927663D02*
X159825958Y-155707601D01*
X159982645Y-91923553D02*
X159982645Y-154886263D01*
X159825958Y-91143616D02*
X159982645Y-91923553D01*
X159398145Y-90508054D02*
X159825958Y-91143616D01*
X158762583Y-90080241D02*
X159398145Y-90508054D01*
X157982646Y-89923554D02*
X158762583Y-90080241D01*
X141662644Y-89923554D02*
X157982646Y-89923554D01*
M02*
