G04 #@! TF.FileFunction,Soldermask,Top*
%FSLAX46Y46*%
G04 Gerber Fmt 4.6, Leading zero omitted, Abs format (unit mm)*
G04 Created by KiCad (PCBNEW 4.0.3-stable) date 04/19/17 22:09:26*
%MOMM*%
%LPD*%
G01*
G04 APERTURE LIST*
%ADD10C,0.100000*%
%ADD11C,3.600000*%
%ADD12C,1.400000*%
%ADD13O,1.400000X1.400000*%
G04 APERTURE END LIST*
D10*
D11*
X156210000Y-93980000D03*
D12*
X148590000Y-105410000D03*
D13*
X151130000Y-105410000D03*
X148590000Y-107950000D03*
X151130000Y-107950000D03*
X148590000Y-110490000D03*
X151130000Y-110490000D03*
X148590000Y-113030000D03*
X151130000Y-113030000D03*
X148590000Y-115570000D03*
X151130000Y-115570000D03*
X148590000Y-118110000D03*
X151130000Y-118110000D03*
X148590000Y-120650000D03*
X151130000Y-120650000D03*
X148590000Y-123190000D03*
X151130000Y-123190000D03*
X148590000Y-125730000D03*
X151130000Y-125730000D03*
X148590000Y-128270000D03*
X151130000Y-128270000D03*
X148590000Y-130810000D03*
X151130000Y-130810000D03*
X148590000Y-133350000D03*
X151130000Y-133350000D03*
X148590000Y-135890000D03*
X151130000Y-135890000D03*
X148590000Y-138430000D03*
X151130000Y-138430000D03*
X148590000Y-140970000D03*
X151130000Y-140970000D03*
X148590000Y-143510000D03*
X151130000Y-143510000D03*
X148590000Y-146050000D03*
X151130000Y-146050000D03*
X148590000Y-148590000D03*
X151130000Y-148590000D03*
X148590000Y-151130000D03*
X151130000Y-151130000D03*
X148590000Y-153670000D03*
X151130000Y-153670000D03*
M02*
