M48
;DRILL file {KiCad 4.0.6-e0-6349~53~ubuntu16.04.1} date Thu Apr  6 16:37:22 2017
;FORMAT={2:4/ absolute / inch / keep zeros}
FMAT,2
INCH,TZ
T1C0.039
T2C0.126
%
G90
G05
M72
T1
X058500Y-041500
X058500Y-042500
X058500Y-043500
X058500Y-044500
X058500Y-045500
X058500Y-046500
X058500Y-047500
X058500Y-048500
X058500Y-049500
X058500Y-050500
X058500Y-051500
X058500Y-052500
X058500Y-053500
X058500Y-054500
X058500Y-055500
X058500Y-056500
X058500Y-057500
X058500Y-058500
X058500Y-059500
X058500Y-060500
X059500Y-041500
X059500Y-042500
X059500Y-043500
X059500Y-044500
X059500Y-045500
X059500Y-046500
X059500Y-047500
X059500Y-048500
X059500Y-049500
X059500Y-050500
X059500Y-051500
X059500Y-052500
X059500Y-053500
X059500Y-054500
X059500Y-055500
X059500Y-056500
X059500Y-057500
X059500Y-058500
X059500Y-059500
X059500Y-060500
T2
X061500Y-037000
T0
M30
